<svg width="288" height="271" viewBox="0 0 288 271" fill="none" xmlns="http://www.w3.org/2000/svg">
<g clip-path="url(#clip0_9009_13775)">
<path d="M199.502 133L320 202.5L199.502 272L79 202.5" fill="url(#paint0_linear_9009_13775)"/>
<path d="M152.375 95L246.746 149.486L152.375 203.973L58 149.486" fill="#E0E0E0"/>
<path d="M152.375 214.873L246.747 160.386V149.488L152.375 203.974V214.873Z" fill="#C6C6C6"/>
<path d="M58 160.386L152.375 214.873V203.974L58 149.488V160.386Z" fill="#F4F4F4"/>
<path d="M126.375 110L220.746 164.486L126.375 218.973L32 164.486" fill="#E0E0E0"/>
<path d="M126.375 229.873L220.747 175.386V164.488L126.375 218.974V229.873Z" fill="#C6C6C6"/>
<path d="M32 175.386L126.375 229.873V218.974L32 164.488V175.386Z" fill="#F4F4F4"/>
<path d="M157.858 166.721L193.58 146.095V63.5977L157.858 84.2239V166.721Z" fill="url(#paint1_linear_9009_13775)"/>
<path d="M122.137 63.5979V146.095L157.86 166.722V84.2242L122.137 63.5979Z" fill="#D2E1FB" fill-opacity="0.9"/>
<path d="M193.582 63.5971L157.86 42.9734L122.137 63.5971L157.86 84.2234L193.582 63.5971Z" fill="#A6C8FF"/>
<path d="M193.582 125.472L157.86 146.095L122.137 125.472" stroke="#D0E2FF" stroke-width="0.254949" stroke-miterlimit="10"/>
<path d="M184.653 68.7549V130.626" stroke="#D0E2FF" stroke-width="0.254949" stroke-miterlimit="10"/>
<path d="M157.858 125.472L184.65 110.004" stroke="#E0E0E0" stroke-width="0.254949" stroke-miterlimit="10"/>
<path d="M157.858 104.847L184.65 89.3789" stroke="#E0E0E0" stroke-width="0.254949" stroke-miterlimit="10"/>
<path d="M157.858 84.2227V146.094" stroke="#D0E2FF" stroke-width="0.254949" stroke-miterlimit="10"/>
<path d="M172.978 85.8463L181.907 80.6885" stroke="#E0E0E0" stroke-width="0.254949" stroke-miterlimit="10"/>
<path d="M172.978 90.0564L181.907 84.9011" stroke="#E0E0E0" stroke-width="0.254949" stroke-miterlimit="10"/>
<path d="M172.978 81.6338L181.907 76.4785" stroke="#E0E0E0" stroke-width="0.254949" stroke-miterlimit="10"/>
<path d="M172.978 106.482L181.907 101.324" stroke="#E0E0E0" stroke-width="0.254949" stroke-miterlimit="10"/>
<path d="M172.978 110.692L181.907 105.537" stroke="#E0E0E0" stroke-width="0.254949" stroke-miterlimit="10"/>
<path d="M172.978 102.27L181.907 97.1143" stroke="#E0E0E0" stroke-width="0.254949" stroke-miterlimit="10"/>
<path d="M157.631 170.344L120.007 148.619V61.7266L157.631 83.4516V170.344Z" fill="url(#paint2_linear_9009_13775)"/>
<path d="M195.257 61.7256V148.618L157.63 170.343V83.4506L195.257 61.7256Z" fill="url(#paint3_linear_9009_13775)"/>
<path d="M120.006 61.7223L157.63 40L195.257 61.7223L157.63 83.4473L120.006 61.7223Z" fill="#E0E0E0"/>
<path d="M120 135.125L157.653 155.934L195.308 135.125" stroke="#B2B2B2" stroke-width="0.3" stroke-miterlimit="10"/>
<path d="M126.937 65.7627L126.937 139.088" stroke="#B0B0B0" stroke-width="0.3" stroke-miterlimit="10"/>
<path d="M157.631 100.712L120 79.6357" stroke="#B0B0B0" stroke-width="0.3" stroke-miterlimit="10"/>
<path d="M157.631 118.548L120 97.4717" stroke="#B0B0B0" stroke-width="0.3" stroke-miterlimit="10"/>
<path d="M157.631 137.375L120 116.299" stroke="#B0B0B0" stroke-width="0.3" stroke-miterlimit="10"/>
<path d="M151.914 90.5355V83.7701L148.343 81.7029L144.772 79.6357V86.4011L151.914 90.5355Z" stroke="#B0B0B0" stroke-width="0.3" stroke-linejoin="round"/>
<path d="M151.914 108.371V101.606L148.343 99.5389L144.772 97.4717V104.237L151.914 108.371Z" stroke="#B0B0B0" stroke-width="0.3" stroke-linejoin="round"/>
<path d="M151.914 127.199V120.433L148.343 118.366L144.772 116.299V123.064L151.914 127.199Z" stroke="#B0B0B0" stroke-width="0.3" stroke-linejoin="round"/>
<path d="M151.914 146.025V139.259L148.343 137.192L144.772 135.125V141.89L151.914 146.025Z" stroke="#B0B0B0" stroke-width="0.3" stroke-linejoin="round"/>
<path d="M140.808 78.6442L133.871 74.6807" stroke="#B0B0B0" stroke-width="0.3" stroke-miterlimit="10" stroke-linecap="round"/>
<path d="M140.808 81.6169L133.871 77.6533" stroke="#B0B0B0" stroke-width="0.3" stroke-miterlimit="10" stroke-linecap="round"/>
<path d="M140.808 96.4802L133.871 92.5166" stroke="#B0B0B0" stroke-width="0.3" stroke-miterlimit="10" stroke-linecap="round"/>
<path d="M140.808 99.4531L133.871 95.4895" stroke="#B0B0B0" stroke-width="0.3" stroke-miterlimit="10" stroke-linecap="round"/>
<path d="M140.808 115.307L133.871 111.344" stroke="#B0B0B0" stroke-width="0.3" stroke-miterlimit="10" stroke-linecap="round"/>
<path d="M140.808 118.28L133.871 114.316" stroke="#B0B0B0" stroke-width="0.3" stroke-miterlimit="10" stroke-linecap="round"/>
<path d="M140.808 134.134L133.871 130.171" stroke="#B0B0B0" stroke-width="0.3" stroke-miterlimit="10" stroke-linecap="round"/>
<path d="M140.808 137.107L133.871 133.144" stroke="#B0B0B0" stroke-width="0.3" stroke-miterlimit="10" stroke-linecap="round"/>
<path d="M82.832 161.338L92.0396 155.987L92.2682 156.58L83.06 161.931L82.832 161.338Z" fill="#E0E0E0"/>
<path d="M83.0566 161.93L92.2649 156.579L93.9568 156.433L84.7486 161.784L83.0566 161.93Z" fill="#E0E0E0"/>
<path d="M82.832 161.337L92.0396 155.986L93.7322 155.84L84.524 161.191L82.832 161.337Z" fill="#8D8D8D"/>
<path d="M84.524 161.19L84.7519 161.784L83.06 161.929L82.832 161.337L84.524 161.19Z" fill="#8D8D8D"/>
<path d="M84.5273 161.191L93.7356 155.84L93.9636 156.432L84.7553 161.784L84.5273 161.191Z" fill="#8D8D8D"/>
<path d="M79.8773 146.233L89.0855 140.882L89.0842 141.419L79.876 146.77L79.8773 146.233Z" fill="#E0E0E0"/>
<path d="M81.8294 147.36L91.0377 142.009L91.0363 142.546L81.8281 147.897L81.8294 147.36Z" fill="#8D8D8D"/>
<path d="M79.876 146.77L89.0842 141.419L91.0361 142.546L81.8279 147.897L79.876 146.77Z" fill="#E0E0E0"/>
<path d="M81.8292 147.359L81.8279 147.896L79.876 146.769L79.8773 146.232L81.8292 147.359Z" fill="#8D8D8D"/>
<path d="M79.876 146.233L89.0842 140.882L91.0361 142.009L81.8279 147.36L79.876 146.233Z" fill="#8D8D8D"/>
<path d="M83.1368 134.8L92.3451 129.448L92.1145 129.776L82.9062 135.127L83.1368 134.8Z" fill="#E0E0E0"/>
<path d="M82.9062 135.127L92.1145 129.776L93.8005 131.868L84.5923 137.22L82.9062 135.127Z" fill="#E0E0E0"/>
<path d="M84.8234 136.891L94.0316 131.54L93.801 131.868L84.5928 137.219L84.8234 136.891Z" fill="#8D8D8D"/>
<path d="M83.1357 134.8L92.344 129.448L94.03 131.54L84.8218 136.891L83.1357 134.8Z" fill="#8D8D8D"/>
<path d="M101.86 157.777L111.068 152.426C110.382 152.812 110.378 154.077 111.06 155.254C111.399 155.843 111.843 156.296 112.289 156.554C112.734 156.811 113.18 156.871 113.521 156.675L104.313 162.026C103.972 162.223 103.526 162.162 103.081 161.905C102.635 161.648 102.191 161.194 101.852 160.605C101.17 159.429 101.174 158.164 101.86 157.777Z" fill="#E0E0E0"/>
<path d="M101.858 157.777L111.067 152.426C111.408 152.232 111.853 152.293 112.299 152.55L103.09 157.902C102.645 157.644 102.199 157.583 101.858 157.777Z" fill="#8D8D8D"/>
<path d="M103.092 157.902C103.245 157.99 103.397 158.102 103.546 158.234C103.83 158.486 104.098 158.813 104.32 159.199C104.543 159.584 104.692 159.98 104.767 160.351C104.922 161.109 104.771 161.766 104.313 162.027C103.972 162.223 103.526 162.163 103.081 161.906C102.635 161.649 102.191 161.195 101.852 160.606C101.17 159.43 101.174 158.165 101.86 157.778C102.201 157.584 102.646 157.645 103.092 157.902Z" fill="#8D8D8D"/>
<path d="M103.091 157.901L112.299 152.55C112.452 152.638 112.604 152.75 112.753 152.882C113.037 153.134 113.306 153.461 113.528 153.847C113.75 154.232 113.899 154.627 113.975 154.998C114.129 155.757 113.978 156.413 113.52 156.674L104.312 162.026C104.77 161.765 104.921 161.108 104.766 160.35C104.691 159.979 104.542 159.583 104.32 159.198C104.097 158.813 103.829 158.485 103.545 158.233C103.397 158.101 103.244 157.989 103.091 157.901Z" fill="#8D8D8D"/>
<path d="M121.578 182.584L130.785 177.232L130.555 177.56L121.347 182.911L121.578 182.584Z" fill="#E0E0E0"/>
<path d="M121.347 182.912L130.555 177.561L132.241 179.657L123.033 185.009L121.347 182.912Z" fill="#E0E0E0"/>
<path d="M92.3105 132.628L101.519 127.277L101.924 127.242L92.7162 132.593L92.3105 132.628Z" fill="#E0E0E0"/>
<path d="M91.3438 130.119L100.552 124.768L101.522 127.277L92.3138 132.628L91.3438 130.119Z" fill="#E0E0E0"/>
<path d="M121.573 182.584L130.781 177.232L132.468 179.329L123.259 184.68L121.573 182.584Z" fill="#8D8D8D"/>
<path d="M123.264 184.68L132.472 179.329L132.241 179.656L123.033 185.008L123.264 184.68Z" fill="#8D8D8D"/>
<path d="M91.3438 130.118L100.551 124.767L100.957 124.737L91.7488 130.088L91.3438 130.118Z" fill="#8D8D8D"/>
<path d="M91.7488 130.089L92.7195 132.593L92.3138 132.628L91.3438 130.119L91.7488 130.089Z" fill="#8D8D8D"/>
<path d="M91.7441 130.088L100.952 124.737L101.923 127.241L92.7149 132.593L91.7441 130.088Z" fill="#8D8D8D"/>
<path d="M124.344 171.907L133.552 166.556L133.55 167.093L124.342 172.443L124.344 171.907Z" fill="#E0E0E0"/>
<path d="M102.928 133.096L112.137 127.745L112.13 129.988L102.922 135.339L102.928 133.096Z" fill="#E0E0E0"/>
<path d="M103.395 133.365L112.603 128.014L112.597 130.257L103.389 135.608L103.395 133.365Z" fill="#8D8D8D"/>
<path d="M102.922 135.339L112.13 129.987L112.597 130.257L103.389 135.609L102.922 135.339Z" fill="#E0E0E0"/>
<path d="M126.297 173.034L135.505 167.682L135.503 168.219L126.295 173.57L126.297 173.034Z" fill="#8D8D8D"/>
<path d="M124.342 172.444L133.55 167.093L135.502 168.22L126.294 173.57L124.342 172.444Z" fill="#E0E0E0"/>
<path d="M124.342 171.907L133.55 166.556L135.502 167.683L126.294 173.034L124.342 171.907Z" fill="#8D8D8D"/>
<path d="M126.296 173.034L126.294 173.57L124.342 172.444L124.344 171.907L126.296 173.034Z" fill="#8D8D8D"/>
<path d="M121.415 158.019L130.623 152.668L130.851 153.26L121.644 158.612L121.415 158.019Z" fill="#E0E0E0"/>
<path d="M113.569 144.634L122.778 139.282L123.181 139.785L113.973 145.135L113.569 144.634Z" fill="#E0E0E0"/>
<path d="M121.646 158.612L130.853 153.261L132.546 153.119L123.337 158.47L121.646 158.612Z" fill="#E0E0E0"/>
<path d="M114.551 143.255L123.759 137.904L122.778 139.281L113.569 144.633L114.551 143.255Z" fill="#E0E0E0"/>
<path d="M123.108 157.877L123.336 158.469L121.644 158.611L121.415 158.019L123.108 157.877Z" fill="#8D8D8D"/>
<path d="M121.415 158.02L130.623 152.668L132.316 152.526L123.108 157.878L121.415 158.02Z" fill="#8D8D8D"/>
<path d="M123.109 157.878L132.318 152.526L132.546 153.119L123.337 158.47L123.109 157.878Z" fill="#8D8D8D"/>
<path d="M114.954 143.752L124.162 138.401L123.181 139.784L113.973 145.134L114.954 143.752Z" fill="#8D8D8D"/>
<path d="M114.554 143.255L123.762 137.904L124.166 138.401L114.958 143.752L114.554 143.255Z" fill="#8D8D8D"/>
<path d="M119.804 150.371L129.013 145.02L113.969 154.999L104.761 160.35L119.804 150.371Z" fill="#8D8D8D"/>
<path d="M103.544 158.234L112.752 152.883L129.017 145.02L119.809 150.371L103.544 158.234Z" fill="#8D8D8D"/>
<path d="M119.809 150.371L104.766 160.35C104.69 159.979 104.541 159.584 104.319 159.198C104.096 158.813 103.828 158.485 103.544 158.233L119.809 150.371Z" fill="#8D8D8D"/>
<path d="M102.928 133.096L112.136 127.745L112.603 128.014L103.395 133.366L102.928 133.096Z" fill="#8D8D8D"/>
<path d="M112.379 124.578C105.13 120.393 98.5612 120.004 93.8186 122.761L84.6104 128.112C89.353 125.356 95.9214 125.744 103.171 129.929C117.577 138.247 129.216 158.408 129.17 174.962C129.146 183.186 126.243 188.972 121.561 191.692L130.769 186.341C135.452 183.62 138.355 177.834 138.378 169.611C138.425 153.057 126.785 132.896 112.379 124.578Z" fill="#A8A8A8"/>
<path d="M103.169 129.929C117.576 138.246 129.215 158.408 129.169 174.962C129.122 191.516 117.406 198.192 103 189.875C88.5934 181.557 76.9531 161.396 77.0001 144.842C77.0472 128.289 88.7632 121.612 103.169 129.929ZM104.311 162.026C104.769 161.765 104.92 161.108 104.765 160.35L119.809 150.371L103.544 158.234C103.395 158.102 103.243 157.99 103.09 157.902C102.644 157.645 102.199 157.583 101.858 157.777C101.172 158.163 101.168 159.429 101.85 160.605C102.189 161.194 102.633 161.648 103.079 161.905C103.524 162.163 103.97 162.223 104.311 162.026ZM92.3123 132.628L92.718 132.593L91.7473 130.089L91.3423 130.119L92.3123 132.628ZM114.553 143.256L113.572 144.633L113.975 145.135L114.957 143.753L114.553 143.256ZM83.0597 161.93L84.7523 161.784L84.5243 161.191L82.8317 161.338L83.0597 161.93ZM123.033 185.008L123.263 184.68L121.577 182.583L121.347 182.911L123.033 185.008ZM84.5916 137.22L84.8222 136.892L83.1361 134.8L82.9055 135.128L84.5916 137.22ZM121.645 158.612L123.337 158.47L123.109 157.878L121.417 158.02L121.645 158.612ZM102.926 133.097L102.92 135.339L103.387 135.609L103.393 133.367L102.926 133.097ZM81.8251 147.896L81.8264 147.359L79.8744 146.232L79.8731 146.769L81.8251 147.896ZM124.342 172.443L126.294 173.57L126.295 173.033L124.343 171.906L124.342 172.443Z" fill="url(#paint4_linear_9009_13775)"/>
<path d="M83.1368 134.8L84.8229 136.892L84.5923 137.219L82.9062 135.127L83.1368 134.8Z" fill="#8D8D8D"/>
<path d="M121.577 182.584L123.263 184.68L123.033 185.008L121.347 182.911L121.577 182.584Z" fill="#8D8D8D"/>
<path d="M103.395 133.366L103.389 135.61L102.922 135.34L102.928 133.097L103.395 133.366Z" fill="#8D8D8D"/>
<path d="M114.551 143.255L114.955 143.752L113.973 145.134L113.569 144.633L114.551 143.255Z" fill="#8D8D8D"/>
</g>
<defs>
<linearGradient id="paint0_linear_9009_13775" x1="175.089" y1="139.071" x2="214.76" y2="202.909" gradientUnits="userSpaceOnUse">
<stop stop-color="#C6C6C6"/>
<stop offset="1" stop-color="#E0E0E0" stop-opacity="0"/>
</linearGradient>
<linearGradient id="paint1_linear_9009_13775" x1="158.126" y1="83.1796" x2="184.91" y2="152.732" gradientUnits="userSpaceOnUse">
<stop stop-color="#4589FF"/>
<stop offset="1" stop-color="#79AAFF" stop-opacity="0.8"/>
</linearGradient>
<linearGradient id="paint2_linear_9009_13775" x1="133.376" y1="67.7454" x2="138.819" y2="170.344" gradientUnits="userSpaceOnUse">
<stop stop-color="#FDFDFD"/>
<stop offset="1" stop-color="#D0D0D0"/>
</linearGradient>
<linearGradient id="paint3_linear_9009_13775" x1="176.443" y1="61.7256" x2="176.479" y2="147.016" gradientUnits="userSpaceOnUse">
<stop stop-color="#A8A8A8"/>
<stop offset="1" stop-color="#DCDCDC"/>
</linearGradient>
<linearGradient id="paint4_linear_9009_13775" x1="117.374" y1="144.374" x2="93.1178" y2="181.86" gradientUnits="userSpaceOnUse">
<stop stop-color="white"/>
<stop offset="1" stop-color="#E7E7E7"/>
</linearGradient>
<clipPath id="clip0_9009_13775">
<rect width="288" height="271" fill="white"/>
</clipPath>
</defs>
</svg>
