<svg width="288" height="271" viewBox="0 0 288 271" fill="none" xmlns="http://www.w3.org/2000/svg">
<rect width="288" height="271" fill="white"/>
<path d="M96.4369 56.0317L136.873 79.3777L96.4369 102.724L56 79.3777" fill="#ECECEC"/>
<path d="M96.437 107.394L136.873 84.0478V79.3782L96.437 102.724V107.394Z" fill="#C6C6C6"/>
<path d="M56 84.0478L96.4369 107.394V102.724L56 79.3782V84.0478Z" fill="#F4F4F4"/>
<path d="M96.6218 90.1081L77.5395 79.0895V35.019L96.6218 46.0377V90.1081Z" fill="url(#paint0_linear_5339_7864)"/>
<path d="M115.705 35.019V79.0895L96.6216 90.1081V46.0377L115.705 35.019Z" fill="url(#paint1_linear_5339_7864)"/>
<path d="M77.5392 35.0173L96.6216 24L115.705 35.0173L96.6216 46.0359L77.5392 35.0173Z" fill="#E0E0E0"/>
<path d="M77.536 72.2461L96.6328 82.8L115.731 72.2461" stroke="#B2B2B2" stroke-width="0.3" stroke-miterlimit="10"/>
<path d="M81.054 37.0667L81.054 74.2564" stroke="#B0B0B0" stroke-width="0.3" stroke-miterlimit="10"/>
<path d="M96.6218 54.7925L77.5359 44.1028" stroke="#B0B0B0" stroke-width="0.3" stroke-miterlimit="10"/>
<path d="M96.6218 63.8384L77.5359 53.1487" stroke="#B0B0B0" stroke-width="0.3" stroke-miterlimit="10"/>
<path d="M96.6218 73.3872L77.5359 62.6975" stroke="#B0B0B0" stroke-width="0.3" stroke-miterlimit="10"/>
<path d="M93.722 49.631V46.1997L91.9111 45.1512L90.1001 44.1028V47.5341L93.722 49.631Z" stroke="#B0B0B0" stroke-width="0.3" stroke-linejoin="round"/>
<path d="M93.722 58.6769V55.2456L91.9111 54.1971L90.1001 53.1487V56.58L93.722 58.6769Z" stroke="#B0B0B0" stroke-width="0.3" stroke-linejoin="round"/>
<path d="M93.722 68.2257V64.7944L91.9111 63.746L90.1001 62.6975V66.1288L93.722 68.2257Z" stroke="#B0B0B0" stroke-width="0.3" stroke-linejoin="round"/>
<path d="M93.722 77.7743V74.343L91.9111 73.2945L90.1001 72.2461V75.6774L93.722 77.7743Z" stroke="#B0B0B0" stroke-width="0.3" stroke-linejoin="round"/>
<path d="M88.0898 43.5999L84.5719 41.5896" stroke="#B0B0B0" stroke-width="0.3" stroke-miterlimit="10" stroke-linecap="round"/>
<path d="M88.0896 45.1077L84.5716 43.0974" stroke="#B0B0B0" stroke-width="0.3" stroke-miterlimit="10" stroke-linecap="round"/>
<path d="M88.0898 52.6462L84.5719 50.636" stroke="#B0B0B0" stroke-width="0.3" stroke-miterlimit="10" stroke-linecap="round"/>
<path d="M88.0896 54.1541L84.5716 52.1438" stroke="#B0B0B0" stroke-width="0.3" stroke-miterlimit="10" stroke-linecap="round"/>
<path d="M88.0898 62.1948L84.5719 60.1846" stroke="#B0B0B0" stroke-width="0.3" stroke-miterlimit="10" stroke-linecap="round"/>
<path d="M88.0896 63.7026L84.5716 61.6924" stroke="#B0B0B0" stroke-width="0.3" stroke-miterlimit="10" stroke-linecap="round"/>
<path d="M88.0898 71.7437L84.5719 69.7334" stroke="#B0B0B0" stroke-width="0.3" stroke-miterlimit="10" stroke-linecap="round"/>
<path d="M88.0896 73.2515L84.5716 71.2412" stroke="#B0B0B0" stroke-width="0.3" stroke-miterlimit="10" stroke-linecap="round"/>
<path d="M139.032 104L115.162 89.8419" stroke="url(#paint2_linear_5339_7864)" stroke-width="2"/>
<path d="M158.922 92L199.842 115.626L158.922 139.252L118 115.626" fill="#ECECEC"/>
<path d="M158.922 143.978L199.842 120.352V115.626L158.922 139.252V143.978Z" fill="#C6C6C6"/>
<path d="M118 120.352L158.922 143.978V139.252L118 115.626V120.352Z" fill="#F4F4F4"/>
<path d="M158.079 127.901L138.767 116.75V72.1514L158.079 83.3021V127.901Z" fill="url(#paint3_linear_5339_7864)"/>
<path d="M177.391 72.1514V116.75L158.078 127.901V83.3021L177.391 72.1514Z" fill="url(#paint4_linear_5339_7864)"/>
<path d="M138.767 72.1494L158.078 61L177.391 72.1494L158.078 83.3001L138.767 72.1494Z" fill="#E0E0E0"/>
<path d="M138.764 109.825L158.09 120.505L177.417 109.825" stroke="#B2B2B2" stroke-width="0.3" stroke-miterlimit="10"/>
<path d="M142.324 74.2231L142.324 111.859" stroke="#B0B0B0" stroke-width="0.3" stroke-miterlimit="10"/>
<path d="M158.079 92.1617L138.764 81.3438" stroke="#B0B0B0" stroke-width="0.3" stroke-miterlimit="10"/>
<path d="M158.079 101.316L138.764 90.4983" stroke="#B0B0B0" stroke-width="0.3" stroke-miterlimit="10"/>
<path d="M158.079 110.98L138.764 100.162" stroke="#B0B0B0" stroke-width="0.3" stroke-miterlimit="10"/>
<path d="M155.144 86.9385V83.466L153.311 82.405L151.479 81.344V84.8164L155.144 86.9385Z" stroke="#B0B0B0" stroke-width="0.3" stroke-linejoin="round"/>
<path d="M155.144 96.0925V92.6201L153.311 91.5591L151.479 90.498V93.9705L155.144 96.0925Z" stroke="#B0B0B0" stroke-width="0.3" stroke-linejoin="round"/>
<path d="M155.144 105.756V102.283L153.311 101.222L151.479 100.161V103.634L155.144 105.756Z" stroke="#B0B0B0" stroke-width="0.3" stroke-linejoin="round"/>
<path d="M155.144 115.419V111.947L153.311 110.885L151.479 109.824V113.297L155.144 115.419Z" stroke="#B0B0B0" stroke-width="0.3" stroke-linejoin="round"/>
<path d="M149.444 80.8349L145.884 78.8005" stroke="#B0B0B0" stroke-width="0.3" stroke-miterlimit="10" stroke-linecap="round"/>
<path d="M149.444 82.3608L145.884 80.3264" stroke="#B0B0B0" stroke-width="0.3" stroke-miterlimit="10" stroke-linecap="round"/>
<path d="M149.444 89.9897L145.884 87.9553" stroke="#B0B0B0" stroke-width="0.3" stroke-miterlimit="10" stroke-linecap="round"/>
<path d="M149.444 91.5156L145.884 89.4812" stroke="#B0B0B0" stroke-width="0.3" stroke-miterlimit="10" stroke-linecap="round"/>
<path d="M149.444 99.6528L145.884 97.6184" stroke="#B0B0B0" stroke-width="0.3" stroke-miterlimit="10" stroke-linecap="round"/>
<path d="M149.444 101.179L145.884 99.1443" stroke="#B0B0B0" stroke-width="0.3" stroke-miterlimit="10" stroke-linecap="round"/>
<path d="M149.444 109.316L145.884 107.282" stroke="#B0B0B0" stroke-width="0.3" stroke-miterlimit="10" stroke-linecap="round"/>
<path d="M149.444 110.842L145.884 108.808" stroke="#B0B0B0" stroke-width="0.3" stroke-miterlimit="10" stroke-linecap="round"/>
<path d="M87 159L139 129" stroke="url(#paint5_linear_5339_7864)" stroke-width="2"/>
<g filter="url(#filter0_f_5339_7864)">
<path d="M102.738 147.11L123.673 157.75C125.052 158.451 125.008 160.436 123.599 161.074C123.079 161.31 122.479 161.291 121.974 161.024L101.225 150.026C100.099 149.429 100.052 147.833 101.141 147.171C101.627 146.876 102.231 146.853 102.738 147.11Z" fill="url(#paint6_linear_5339_7864)"/>
</g>
<path d="M130.13 152.618C130.13 149.946 128.253 146.699 125.94 145.363C125.5 145.1 125.015 144.92 124.509 144.832C123.942 141.846 122.089 138.707 119.758 136.804C119.741 136.789 119.724 136.777 119.707 136.763C119.63 136.701 119.554 136.641 119.477 136.581L119.393 136.519L119.186 136.369L119.091 136.303L118.882 136.167L118.794 136.11C118.695 136.048 118.596 135.986 118.495 135.929C118.395 135.872 118.294 135.815 118.194 135.764L118.16 135.746C118.07 135.7 117.981 135.657 117.888 135.61L117.823 135.579C117.258 135.314 116.651 135.148 116.03 135.09C115.678 131.326 113.315 127.107 110.289 124.753C110.192 124.678 110.096 124.605 109.998 124.534C109.903 124.466 109.808 124.398 109.713 124.334L109.64 124.287C109.565 124.237 109.489 124.185 109.413 124.138C109.309 124.072 109.204 124.002 109.099 123.948C108.995 123.893 108.894 123.834 108.794 123.781L108.696 123.73C108.632 123.698 108.569 123.665 108.505 123.635L108.422 123.595L108.35 123.563C108.296 123.538 108.241 123.515 108.187 123.491L108.092 123.451C108.046 123.432 108 123.415 107.956 123.398L107.898 123.375L107.762 123.318L107.609 123.267L107.443 123.214L107.29 123.182C107.236 123.167 107.18 123.152 107.127 123.14L106.978 123.107L106.812 123.069L106.676 123.046L106.52 123.026C106.473 123.026 106.425 123.015 106.384 123.011L106.23 123H105.794C105.746 123 105.693 123 105.643 123.01L105.517 123.02C105.467 123.02 105.418 123.034 105.368 123.041L105.248 123.06C105.198 123.069 105.149 123.08 105.1 123.092L104.989 123.118C104.937 123.132 104.887 123.147 104.837 123.163C104.786 123.179 104.77 123.182 104.736 123.194C104.682 123.213 104.628 123.235 104.575 123.257C104.548 123.266 104.52 123.276 104.493 123.288C104.414 123.322 104.337 123.358 104.261 123.399L104.2 123.433L104.105 123.489L100.203 125.797L101.5 126.82C101.435 126.849 101.372 126.88 101.31 126.914H101.302L94.6848 130.715L97.252 131.892L99.625 131.16C99.8884 134.585 102.275 138.535 105.183 140.214L124.202 153.79L124.789 157.747L128.898 155.326H128.908L128.933 155.311C129.673 154.866 130.13 153.936 130.13 152.618Z" fill="#A8A8A8"/>
<path d="M121.844 147.776C121.404 147.513 120.919 147.333 120.413 147.245C119.747 143.74 117.307 140.017 114.398 138.338C113.524 137.833 112.691 137.563 111.937 137.505C111.54 133.255 108.585 128.426 104.998 126.355C101.14 124.128 98.0121 125.934 98.0121 130.388C98.0121 130.54 98.0121 130.692 98.023 130.846C95.202 129.537 93 131.011 93 134.354C93 137.91 95.4979 142.237 98.5782 144.015L121.847 157.455C124.155 158.791 126.036 157.708 126.036 155.036C126.036 152.364 124.157 149.112 121.844 147.776Z" fill="url(#paint7_linear_5339_7864)"/>
<path d="M66.3765 145.762L106.783 169.091L66.3765 192.42L25.969 169.091" fill="#E0E0E0"/>
<path d="M66.3765 197.087L106.783 173.759V169.092L66.3765 192.421V197.087Z" fill="#C6C6C6"/>
<path d="M25.969 173.759L66.3765 197.087V192.421L25.969 169.092V173.759Z" fill="#F4F4F4"/>
<path d="M80.4848 143.764L86.0481 131.654L70.6375 122.754L49.6638 125.97L44.1006 138.08L59.5111 146.974L80.4848 143.764Z" fill="#E0E0E0"/>
<path d="M86.0444 166.349L80.4812 178.459V143.764L86.0444 131.654V166.349Z" fill="url(#paint8_linear_5339_7864)"/>
<path d="M44.1006 172.763L59.5111 181.662V146.974L44.1006 138.08V172.763Z" fill="url(#paint9_linear_5339_7864)"/>
<path d="M80.4823 178.459L59.5085 181.675V146.974L80.4823 143.764V178.459Z" fill="url(#paint10_linear_5339_7864)"/>
<path d="M80.4704 136.004L86.0337 123.894L70.6232 115L49.6494 118.21L44.0862 130.32L59.4967 139.22L80.4704 136.004Z" fill="#C6C6C6"/>
<path d="M86.0356 131.412L80.4724 143.522V135.944L86.0356 123.834V131.412Z" fill="#D4D4D4"/>
<path d="M80.4735 143.55L59.4998 146.767V139.182L80.4735 135.972V143.55Z" fill="#A8A8A8"/>
<path d="M44.0859 137.868L59.4964 146.768V139.183L44.0859 130.289V137.868Z" fill="#C6C6C6"/>
<path opacity="0.5" d="M84.1546 128.426L77.8009 124.956L68.3881 119.52L55.5721 121.481L52.175 128.878L61.5879 134.315L68.1588 137.863L80.8178 135.968L84.1546 128.426Z" fill="url(#paint11_linear_5339_7864)"/>
<path d="M52.1775 128.988L61.6507 134.461V131.528L52.1775 126.062V128.988Z" fill="#F4F4F4"/>
<path d="M74.5393 129.556L77.9605 122.11L68.4873 116.643L55.5929 118.616L52.1777 126.062L61.6509 131.529L74.5393 129.556Z" fill="#C6C6C6"/>
<path d="M77.9627 125.042L74.5415 132.488V129.556L77.9627 122.11V125.042Z" fill="#A8A8A8"/>
<path d="M74.5409 132.489L61.6526 134.462V131.53L74.5409 129.557V132.489Z" fill="#B9B9B9"/>
<path d="M130.922 182.416L171.842 206.042L130.922 229.668L90 206.042" fill="#ECECEC"/>
<path d="M130.922 234.394L171.842 210.768V206.042L130.922 229.668V234.394Z" fill="#C6C6C6"/>
<path d="M90 210.768L130.922 234.394V229.668L90 206.042V210.768Z" fill="#F4F4F4"/>
<path d="M131.109 216.901L111.798 205.75V161.151L131.109 172.302V216.901Z" fill="url(#paint12_linear_5339_7864)"/>
<path d="M150.422 161.151V205.75L131.109 216.901V172.302L150.422 161.151Z" fill="url(#paint13_linear_5339_7864)"/>
<path d="M111.798 161.149L131.109 150L150.422 161.149L131.109 172.3L111.798 161.149Z" fill="#E0E0E0"/>
<path d="M111.795 198.825L131.12 209.505L150.448 198.825" stroke="#B2B2B2" stroke-width="0.3" stroke-miterlimit="10"/>
<path d="M115.354 163.224L115.354 200.859" stroke="#B0B0B0" stroke-width="0.3" stroke-miterlimit="10"/>
<path d="M131.109 181.162L111.794 170.344" stroke="#B0B0B0" stroke-width="0.3" stroke-miterlimit="10"/>
<path d="M131.109 190.316L111.794 179.498" stroke="#B0B0B0" stroke-width="0.3" stroke-miterlimit="10"/>
<path d="M131.109 199.98L111.794 189.162" stroke="#B0B0B0" stroke-width="0.3" stroke-miterlimit="10"/>
<path d="M128.175 175.938V172.466L126.342 171.405L124.509 170.344V173.816L128.175 175.938Z" stroke="#B0B0B0" stroke-width="0.3" stroke-linejoin="round"/>
<path d="M128.175 185.093V181.62L126.342 180.559L124.509 179.498V182.971L128.175 185.093Z" stroke="#B0B0B0" stroke-width="0.3" stroke-linejoin="round"/>
<path d="M128.175 194.756V191.284L126.342 190.223L124.509 189.162V192.634L128.175 194.756Z" stroke="#B0B0B0" stroke-width="0.3" stroke-linejoin="round"/>
<path d="M128.175 204.419V200.947L126.342 199.886L124.509 198.825V202.297L128.175 204.419Z" stroke="#B0B0B0" stroke-width="0.3" stroke-linejoin="round"/>
<path d="M122.475 169.835L118.915 167.801" stroke="#B0B0B0" stroke-width="0.3" stroke-miterlimit="10" stroke-linecap="round"/>
<path d="M122.475 171.361L118.915 169.326" stroke="#B0B0B0" stroke-width="0.3" stroke-miterlimit="10" stroke-linecap="round"/>
<path d="M122.475 178.99L118.915 176.955" stroke="#B0B0B0" stroke-width="0.3" stroke-miterlimit="10" stroke-linecap="round"/>
<path d="M122.475 180.516L118.915 178.481" stroke="#B0B0B0" stroke-width="0.3" stroke-miterlimit="10" stroke-linecap="round"/>
<path d="M122.475 188.653L118.915 186.619" stroke="#B0B0B0" stroke-width="0.3" stroke-miterlimit="10" stroke-linecap="round"/>
<path d="M122.475 190.179L118.915 188.144" stroke="#B0B0B0" stroke-width="0.3" stroke-miterlimit="10" stroke-linecap="round"/>
<path d="M122.475 198.316L118.915 196.282" stroke="#B0B0B0" stroke-width="0.3" stroke-miterlimit="10" stroke-linecap="round"/>
<path d="M122.475 199.842L118.915 197.808" stroke="#B0B0B0" stroke-width="0.3" stroke-miterlimit="10" stroke-linecap="round"/>
<path d="M202.91 141.849L177 127" stroke="url(#paint14_linear_5339_7864)" stroke-width="2"/>
<path d="M222.437 129.032L262.873 152.378L222.437 175.724L182 152.378" fill="#ECECEC"/>
<path d="M222.437 180.394L262.873 157.048V152.378L222.437 175.724V180.394Z" fill="#C6C6C6"/>
<path d="M182 157.048L222.437 180.394V175.724L182 152.378V157.048Z" fill="#F4F4F4"/>
<path d="M222.622 163.108L203.539 152.089V108.019L222.622 119.038V163.108Z" fill="url(#paint15_linear_5339_7864)"/>
<path d="M241.705 108.019V152.089L222.622 163.108V119.038L241.705 108.019Z" fill="url(#paint16_linear_5339_7864)"/>
<path d="M203.539 108.017L222.622 97L241.705 108.017L222.622 119.036L203.539 108.017Z" fill="#E0E0E0"/>
<path d="M203.536 145.246L222.633 155.8L241.731 145.246" stroke="#B2B2B2" stroke-width="0.3" stroke-miterlimit="10"/>
<path d="M207.054 110.067L207.054 147.256" stroke="#B0B0B0" stroke-width="0.3" stroke-miterlimit="10"/>
<path d="M222.622 127.793L203.536 117.103" stroke="#B0B0B0" stroke-width="0.3" stroke-miterlimit="10"/>
<path d="M222.622 136.838L203.536 126.149" stroke="#B0B0B0" stroke-width="0.3" stroke-miterlimit="10"/>
<path d="M222.622 146.387L203.536 135.698" stroke="#B0B0B0" stroke-width="0.3" stroke-miterlimit="10"/>
<path d="M219.722 122.631V119.2L217.911 118.151L216.1 117.103V120.534L219.722 122.631Z" stroke="#B0B0B0" stroke-width="0.3" stroke-linejoin="round"/>
<path d="M219.722 131.677V128.246L217.911 127.197L216.1 126.149V129.58L219.722 131.677Z" stroke="#B0B0B0" stroke-width="0.3" stroke-linejoin="round"/>
<path d="M219.722 141.226V137.794L217.911 136.746L216.1 135.698V139.129L219.722 141.226Z" stroke="#B0B0B0" stroke-width="0.3" stroke-linejoin="round"/>
<path d="M219.722 150.774V147.343L217.911 146.295L216.1 145.246V148.677L219.722 150.774Z" stroke="#B0B0B0" stroke-width="0.3" stroke-linejoin="round"/>
<path d="M214.09 116.6L210.572 114.59" stroke="#B0B0B0" stroke-width="0.3" stroke-miterlimit="10" stroke-linecap="round"/>
<path d="M214.09 118.108L210.572 116.097" stroke="#B0B0B0" stroke-width="0.3" stroke-miterlimit="10" stroke-linecap="round"/>
<path d="M214.09 125.646L210.572 123.636" stroke="#B0B0B0" stroke-width="0.3" stroke-miterlimit="10" stroke-linecap="round"/>
<path d="M214.09 127.154L210.572 125.144" stroke="#B0B0B0" stroke-width="0.3" stroke-miterlimit="10" stroke-linecap="round"/>
<path d="M214.09 135.195L210.572 133.185" stroke="#B0B0B0" stroke-width="0.3" stroke-miterlimit="10" stroke-linecap="round"/>
<path d="M214.09 136.703L210.572 134.692" stroke="#B0B0B0" stroke-width="0.3" stroke-miterlimit="10" stroke-linecap="round"/>
<path d="M214.09 144.744L210.572 142.733" stroke="#B0B0B0" stroke-width="0.3" stroke-miterlimit="10" stroke-linecap="round"/>
<path d="M214.09 146.251L210.572 144.241" stroke="#B0B0B0" stroke-width="0.3" stroke-miterlimit="10" stroke-linecap="round"/>
<defs>
<filter id="filter0_f_5339_7864" x="96.9318" y="143.512" width="31.1703" height="21.1462" filterUnits="userSpaceOnUse" color-interpolation-filters="sRGB">
<feFlood flood-opacity="0" result="BackgroundImageFix"/>
<feBlend mode="normal" in="SourceGraphic" in2="BackgroundImageFix" result="shape"/>
<feGaussianBlur stdDeviation="1.71" result="effect1_foregroundBlur_5339_7864"/>
</filter>
<linearGradient id="paint0_linear_5339_7864" x1="84.32" y1="38.0717" x2="81.1287" y2="98.8821" gradientUnits="userSpaceOnUse">
<stop stop-color="#FCFCFC"/>
<stop offset="1" stop-color="#D4D4D4"/>
</linearGradient>
<linearGradient id="paint1_linear_5339_7864" x1="106.257" y1="39.0769" x2="107.262" y2="86.3179" gradientUnits="userSpaceOnUse">
<stop stop-color="#A8A8A8"/>
<stop offset="1" stop-color="#E0E0E0"/>
</linearGradient>
<linearGradient id="paint2_linear_5339_7864" x1="138.777" y1="104.43" x2="114.907" y2="90.272" gradientUnits="userSpaceOnUse">
<stop stop-color="#A8A8A8"/>
<stop offset="1" stop-color="#ECECEC"/>
</linearGradient>
<linearGradient id="paint3_linear_5339_7864" x1="145.629" y1="75.2407" x2="142.4" y2="136.78" gradientUnits="userSpaceOnUse">
<stop stop-color="#FCFCFC"/>
<stop offset="1" stop-color="#D4D4D4"/>
</linearGradient>
<linearGradient id="paint4_linear_5339_7864" x1="167.829" y1="76.2578" x2="168.846" y2="124.065" gradientUnits="userSpaceOnUse">
<stop stop-color="#A8A8A8"/>
<stop offset="1" stop-color="#E0E0E0"/>
</linearGradient>
<linearGradient id="paint5_linear_5339_7864" x1="86.7501" y1="158.567" x2="138.75" y2="128.567" gradientUnits="userSpaceOnUse">
<stop stop-color="#A8A8A8"/>
<stop offset="1" stop-color="#ECECEC"/>
</linearGradient>
<linearGradient id="paint6_linear_5339_7864" x1="101.333" y1="147.869" x2="123.781" y2="161.645" gradientUnits="userSpaceOnUse">
<stop stop-color="#C6C6C6" stop-opacity="0"/>
<stop offset="0.358395" stop-color="#C6C6C6"/>
<stop offset="1" stop-color="#C6C6C6" stop-opacity="0"/>
</linearGradient>
<linearGradient id="paint7_linear_5339_7864" x1="110.674" y1="156.876" x2="111.937" y2="128.681" gradientUnits="userSpaceOnUse">
<stop stop-color="#A9A9A9"/>
<stop offset="1" stop-color="#D6D6D6"/>
</linearGradient>
<linearGradient id="paint8_linear_5339_7864" x1="83.2628" y1="131.654" x2="83.2628" y2="178.459" gradientUnits="userSpaceOnUse">
<stop stop-color="#DFDFDF"/>
<stop offset="1" stop-color="#9F9F9F"/>
</linearGradient>
<linearGradient id="paint9_linear_5339_7864" x1="46.7555" y1="169.275" x2="52.874" y2="145.129" gradientUnits="userSpaceOnUse">
<stop stop-color="#F4F4F4"/>
<stop offset="1" stop-color="#C6C6C6"/>
</linearGradient>
<linearGradient id="paint10_linear_5339_7864" x1="72.9593" y1="177.199" x2="62.688" y2="147.754" gradientUnits="userSpaceOnUse">
<stop stop-color="#C6C6C6"/>
<stop offset="1" stop-color="#A8A8A8"/>
</linearGradient>
<linearGradient id="paint11_linear_5339_7864" x1="79.3847" y1="135.352" x2="71.7908" y2="127.252" gradientUnits="userSpaceOnUse">
<stop stop-color="#E0E0E0" stop-opacity="0"/>
<stop offset="1" stop-color="#A8A8A8"/>
</linearGradient>
<linearGradient id="paint12_linear_5339_7864" x1="118.66" y1="164.24" x2="115.43" y2="225.78" gradientUnits="userSpaceOnUse">
<stop stop-color="#FCFCFC"/>
<stop offset="1" stop-color="#D4D4D4"/>
</linearGradient>
<linearGradient id="paint13_linear_5339_7864" x1="140.765" y1="161.151" x2="140.783" y2="204.928" gradientUnits="userSpaceOnUse">
<stop stop-color="#A8A8A8"/>
<stop offset="1" stop-color="#DCDCDC"/>
</linearGradient>
<linearGradient id="paint14_linear_5339_7864" x1="202.661" y1="142.283" x2="176.751" y2="127.434" gradientUnits="userSpaceOnUse">
<stop stop-color="#A8A8A8"/>
<stop offset="1" stop-color="#ECECEC"/>
</linearGradient>
<linearGradient id="paint15_linear_5339_7864" x1="210.32" y1="111.072" x2="207.128" y2="171.882" gradientUnits="userSpaceOnUse">
<stop stop-color="#FCFCFC"/>
<stop offset="1" stop-color="#D4D4D4"/>
</linearGradient>
<linearGradient id="paint16_linear_5339_7864" x1="232.257" y1="112.077" x2="233.262" y2="159.318" gradientUnits="userSpaceOnUse">
<stop stop-color="#A8A8A8"/>
<stop offset="1" stop-color="#E0E0E0"/>
</linearGradient>
</defs>
</svg>
