<?xml version="1.0" encoding="UTF-8"?>
<svg width="421px" height="340px" viewBox="0 0 421 340" version="1.1" xmlns="http://www.w3.org/2000/svg" xmlns:xlink="http://www.w3.org/1999/xlink">
    <!-- Generator: Sketch 53.2 (72643) - https://sketchapp.com -->
    <title>3_pic</title>
    <desc>Created with Sketch.</desc>
    <defs>
        <linearGradient x1="20.140302%" y1="39.155798%" x2="79.169627%" y2="57.8483161%" id="linearGradient-1">
            <stop stop-color="#FFAF6D" offset="0%"></stop>
            <stop stop-color="#FA9F6F" offset="18.73%"></stop>
            <stop stop-color="#EE7673" offset="72.37%"></stop>
            <stop stop-color="#E96675" offset="100%"></stop>
        </linearGradient>
        <linearGradient x1="-0.161073826%" y1="49.6890909%" x2="99.9130872%" y2="49.6890909%" id="linearGradient-2">
            <stop stop-color="#C2C7E2" offset="0%"></stop>
            <stop stop-color="#CED2E8" offset="11.15%"></stop>
            <stop stop-color="#E9EBF4" offset="41.88%"></stop>
            <stop stop-color="#F9FAFC" offset="69.13%"></stop>
            <stop stop-color="#FFFFFF" offset="89.89%"></stop>
        </linearGradient>
        <linearGradient x1="0.0151006711%" y1="49.4181818%" x2="100.092617%" y2="49.4181818%" id="linearGradient-3">
            <stop stop-color="#C2C7E2" offset="0%"></stop>
            <stop stop-color="#CED2E8" offset="11.15%"></stop>
            <stop stop-color="#E9EBF4" offset="41.88%"></stop>
            <stop stop-color="#F9FAFC" offset="69.13%"></stop>
            <stop stop-color="#FFFFFF" offset="89.89%"></stop>
        </linearGradient>
        <linearGradient x1="100.292962%" y1="49.7056009%" x2="0.0428614092%" y2="49.7056009%" id="linearGradient-4">
            <stop stop-color="#34318A" offset="0%"></stop>
            <stop stop-color="#3E3C99" offset="24.45%"></stop>
            <stop stop-color="#5857C2" offset="71.63%"></stop>
            <stop stop-color="#696ADD" offset="100%"></stop>
        </linearGradient>
        <linearGradient x1="0.367998082%" y1="50.0177578%" x2="99.994466%" y2="50.0177578%" id="linearGradient-5">
            <stop stop-color="#4041A8" offset="0%"></stop>
            <stop stop-color="#353593" offset="27.46%"></stop>
            <stop stop-color="#242376" offset="73.67%"></stop>
            <stop stop-color="#1E1C6B" offset="100%"></stop>
        </linearGradient>
        <linearGradient x1="100.219094%" y1="49.8634174%" x2="-0.0337419605%" y2="49.8634174%" id="linearGradient-6">
            <stop stop-color="#34318A" offset="0%"></stop>
            <stop stop-color="#3E3C99" offset="24.45%"></stop>
            <stop stop-color="#5857C2" offset="71.63%"></stop>
            <stop stop-color="#696ADD" offset="100%"></stop>
        </linearGradient>
        <linearGradient x1="100.261466%" y1="50.0842073%" x2="0.206517978%" y2="50.0842073%" id="linearGradient-7">
            <stop stop-color="#1E1C6B" offset="0%"></stop>
            <stop stop-color="#252376" offset="19.95%"></stop>
            <stop stop-color="#373794" offset="55.11%"></stop>
            <stop stop-color="#5455C2" offset="100%"></stop>
        </linearGradient>
        <linearGradient x1="58.92155%" y1="2.83740223%" x2="45.935056%" y2="103.592987%" id="linearGradient-8">
            <stop stop-color="#CCD0F2" offset="0%"></stop>
            <stop stop-color="#C2C6E8" offset="43.22%"></stop>
            <stop stop-color="#B9BDE0" offset="100%"></stop>
        </linearGradient>
        <linearGradient x1="99.7247167%" y1="50.0051844%" x2="-0.168210972%" y2="50.0051844%" id="linearGradient-9">
            <stop stop-color="#CCD0F2" offset="0%"></stop>
            <stop stop-color="#D2D5F2" offset="33.22%"></stop>
            <stop stop-color="#E2E4F2" offset="76.66%"></stop>
            <stop stop-color="#EEEEF2" offset="100%"></stop>
        </linearGradient>
        <linearGradient x1="100.218765%" y1="49.7656097%" x2="0.231255885%" y2="49.7656097%" id="linearGradient-10">
            <stop stop-color="#CCD0F2" offset="0%"></stop>
            <stop stop-color="#F0F2FB" offset="64.58%"></stop>
            <stop stop-color="#FFFFFF" offset="100%"></stop>
        </linearGradient>
        <linearGradient x1="31.2488356%" y1="99.0459749%" x2="73.3872331%" y2="4.54046156%" id="linearGradient-11">
            <stop stop-color="#F4F4F9" offset="0%"></stop>
            <stop stop-color="#CCD1F6" offset="100%"></stop>
        </linearGradient>
        <linearGradient x1="68.4856856%" y1="73.7142028%" x2="31.4716454%" y2="26.024776%" id="linearGradient-12">
            <stop stop-color="#BBBFE2" offset="0%"></stop>
            <stop stop-color="#6262C8" offset="88.42%"></stop>
            <stop stop-color="#5655C4" offset="100%"></stop>
        </linearGradient>
        <linearGradient x1="31.158895%" y1="99.3008439%" x2="73.5983088%" y2="4.45644121%" id="linearGradient-13">
            <stop stop-color="#F4F4F9" offset="0%"></stop>
            <stop stop-color="#CCD1F6" offset="100%"></stop>
        </linearGradient>
        <linearGradient x1="68.3524326%" y1="73.7950623%" x2="31.4429632%" y2="26.1718374%" id="linearGradient-14">
            <stop stop-color="#BBBFE2" offset="0%"></stop>
            <stop stop-color="#6262C8" offset="88.42%"></stop>
            <stop stop-color="#5655C4" offset="100%"></stop>
        </linearGradient>
        <linearGradient x1="0%" y1="49.9998488%" x2="99.8992366%" y2="49.9998488%" id="linearGradient-15">
            <stop stop-color="#E96675" offset="36.49%"></stop>
            <stop stop-color="#DC556E" offset="74.7%"></stop>
            <stop stop-color="#D14768" offset="100%"></stop>
        </linearGradient>
        <linearGradient x1="-0.122202602%" y1="50%" x2="99.8777254%" y2="50%" id="linearGradient-16">
            <stop stop-color="#F1B177" offset="0%"></stop>
            <stop stop-color="#F1A876" offset="32.9%"></stop>
            <stop stop-color="#F28F72" offset="86.93%"></stop>
            <stop stop-color="#F28871" offset="100%"></stop>
        </linearGradient>
        <linearGradient x1="0.521099864%" y1="49.9998344%" x2="100.35098%" y2="49.9998344%" id="linearGradient-17">
            <stop stop-color="#F1B177" offset="0%"></stop>
            <stop stop-color="#F1A876" offset="32.9%"></stop>
            <stop stop-color="#F28F72" offset="86.93%"></stop>
            <stop stop-color="#F28871" offset="100%"></stop>
        </linearGradient>
        <linearGradient x1="14.3860223%" y1="88.8370097%" x2="82.6535378%" y2="21.167236%" id="linearGradient-18">
            <stop stop-color="#34318D" offset="94.69%"></stop>
            <stop stop-color="#383694" offset="95.69%"></stop>
            <stop stop-color="#4543A7" offset="97.11%"></stop>
            <stop stop-color="#5958C5" offset="98.78%"></stop>
            <stop stop-color="#6B6AE0" offset="100%"></stop>
        </linearGradient>
        <linearGradient x1="85.7126427%" y1="67.4616801%" x2="15.1779542%" y2="36.9879768%" id="linearGradient-19">
            <stop stop-color="#1E1C6B" offset="2.33041%"></stop>
            <stop stop-color="#34318D" offset="7.78011%"></stop>
        </linearGradient>
        <linearGradient x1="4.66614872e-05%" y1="49.9999727%" x2="100%" y2="49.9999727%" id="linearGradient-20">
            <stop stop-color="#6B6AE0" offset="0%"></stop>
            <stop stop-color="#4241A8" offset="97.67%"></stop>
        </linearGradient>
        <linearGradient x1="24.4835329%" y1="21.9986679%" x2="74.1964072%" y2="79.4456953%" id="linearGradient-21">
            <stop stop-color="#B5AAFF" offset="0%"></stop>
            <stop stop-color="#9A91EC" offset="23.3%"></stop>
            <stop stop-color="#615DC4" offset="75.04%"></stop>
            <stop stop-color="#4B49B4" offset="100%"></stop>
        </linearGradient>
        <linearGradient x1="0.599202636%" y1="49.9997094%" x2="100.475423%" y2="49.9997094%" id="linearGradient-22">
            <stop stop-color="#34318D" offset="0%"></stop>
            <stop stop-color="#1E1C6B" offset="100%"></stop>
        </linearGradient>
        <linearGradient x1="49.9968662%" y1="103.762857%" x2="49.9968662%" y2="1.17428571%" id="linearGradient-23">
            <stop stop-color="#D14768" offset="0%"></stop>
            <stop stop-color="#DE576F" offset="29.26%"></stop>
            <stop stop-color="#E66273" offset="63.06%"></stop>
            <stop stop-color="#E96675" offset="100%"></stop>
        </linearGradient>
        <linearGradient x1="62.1954545%" y1="34.5134298%" x2="23.6409091%" y2="58.9783058%" id="linearGradient-24">
            <stop stop-color="#1E1C6B" offset="0%"></stop>
            <stop stop-color="#5655C4" offset="100%"></stop>
        </linearGradient>
        <linearGradient x1="68.1772727%" y1="32.8132231%" x2="25.3272727%" y2="57.7454545%" id="linearGradient-25">
            <stop stop-color="#1E1C6B" offset="0%"></stop>
            <stop stop-color="#201E6E" offset="2.926999%"></stop>
            <stop stop-color="#3D3C9D" offset="46.83%"></stop>
            <stop stop-color="#4F4EB9" offset="80.62%"></stop>
            <stop stop-color="#5655C4" offset="100%"></stop>
        </linearGradient>
        <linearGradient x1="95.3066667%" y1="18.304%" x2="26.2133333%" y2="57.1493333%" id="linearGradient-26">
            <stop stop-color="#1E1C6B" offset="0%"></stop>
            <stop stop-color="#222071" offset="18.11%"></stop>
            <stop stop-color="#2D2B82" offset="42.55%"></stop>
            <stop stop-color="#3E3D9F" offset="70.59%"></stop>
            <stop stop-color="#5655C4" offset="100%"></stop>
        </linearGradient>
        <linearGradient x1="0.422369598%" y1="50.0002019%" x2="100.267647%" y2="50.0002019%" id="linearGradient-27">
            <stop stop-color="#CED2F4" offset="0%"></stop>
            <stop stop-color="#CFD3F4" offset="0.07793924%"></stop>
            <stop stop-color="#E0E2F7" offset="1.440767%"></stop>
            <stop stop-color="#ECEDF9" offset="3.116523%"></stop>
            <stop stop-color="#F3F3FA" offset="5.444049%"></stop>
            <stop stop-color="#F5F5FA" offset="11.55%"></stop>
            <stop stop-color="#F3F3FA" offset="53.96%"></stop>
            <stop stop-color="#F0F0F9" offset="57%"></stop>
            <stop stop-color="#D7DAF5" offset="83.7%"></stop>
            <stop stop-color="#CED2F4" offset="100%"></stop>
        </linearGradient>
        <linearGradient x1="0.263020482%" y1="49.9998846%" x2="99.8741314%" y2="49.9998846%" id="linearGradient-28">
            <stop stop-color="#F5F5FA" offset="0%"></stop>
            <stop stop-color="#F6F6FB" offset="1.313648%"></stop>
            <stop stop-color="#FDFDFE" offset="14.83%"></stop>
            <stop stop-color="#FFFFFF" offset="50.34%"></stop>
            <stop stop-color="#F5F5FA" offset="100%"></stop>
        </linearGradient>
        <linearGradient x1="35.8948987%" y1="-2.59650353%" x2="75.5105645%" y2="89.6293908%" id="linearGradient-29">
            <stop stop-color="#F1B177" offset="33.71%"></stop>
            <stop stop-color="#F0A877" offset="47.55%"></stop>
            <stop stop-color="#ED9076" offset="70.12%"></stop>
            <stop stop-color="#E96875" offset="98.47%"></stop>
            <stop stop-color="#E96675" offset="100%"></stop>
        </linearGradient>
        <linearGradient x1="0%" y1="50%" x2="100%" y2="50%" id="linearGradient-30">
            <stop stop-color="#C2C7E2" offset="0%"></stop>
            <stop stop-color="#D6D9EB" offset="21.61%"></stop>
            <stop stop-color="#FFFFFF" offset="70.13%"></stop>
        </linearGradient>
        <linearGradient x1="56.8041706%" y1="0.378182608%" x2="36.5639773%" y2="89.5359337%" id="linearGradient-31">
            <stop stop-color="#6B6ADE" offset="29.7%"></stop>
            <stop stop-color="#6261D2" offset="32.11%"></stop>
            <stop stop-color="#4241A8" offset="41.18%"></stop>
        </linearGradient>
        <linearGradient x1="59.1169818%" y1="73.4557057%" x2="40.9873684%" y2="26.6558559%" id="linearGradient-32">
            <stop stop-color="#D14768" offset="0%"></stop>
            <stop stop-color="#F28871" offset="100%"></stop>
        </linearGradient>
        <linearGradient x1="12.6955157%" y1="39.5221251%" x2="86.5561989%" y2="60.2568004%" id="linearGradient-33">
            <stop stop-color="#F1B177" offset="0%"></stop>
            <stop stop-color="#B18B97" offset="34.05%"></stop>
            <stop stop-color="#806EAF" offset="64.29%"></stop>
            <stop stop-color="#615CBE" offset="87.16%"></stop>
            <stop stop-color="#5655C4" offset="100%"></stop>
        </linearGradient>
        <linearGradient x1="12.6750987%" y1="39.5033573%" x2="86.5799665%" y2="60.2101394%" id="linearGradient-34">
            <stop stop-color="#807DFB" offset="0%"></stop>
            <stop stop-color="#6261D4" offset="64.95%"></stop>
            <stop stop-color="#5655C4" offset="100%"></stop>
        </linearGradient>
        <linearGradient x1="0.171752577%" y1="49.7132176%" x2="100.169691%" y2="49.7132176%" id="linearGradient-35">
            <stop stop-color="#D6DCEE" offset="0%"></stop>
            <stop stop-color="#C4CAE5" offset="55.06%"></stop>
            <stop stop-color="#BBC1E1" offset="100%"></stop>
        </linearGradient>
        <linearGradient x1="0.171752577%" y1="49.8728972%" x2="100.169691%" y2="49.8728972%" id="linearGradient-36">
            <stop stop-color="#F1B177" offset="0%"></stop>
            <stop stop-color="#F1B177" offset="0.4181743%"></stop>
            <stop stop-color="#ED8876" offset="44.26%"></stop>
            <stop stop-color="#EA6F75" offset="78.96%"></stop>
            <stop stop-color="#E96675" offset="100%"></stop>
        </linearGradient>
        <linearGradient x1="0.171752577%" y1="50.0299065%" x2="100.169691%" y2="50.0299065%" id="linearGradient-37">
            <stop stop-color="#D6DCEE" offset="0%"></stop>
            <stop stop-color="#C4CAE5" offset="55.06%"></stop>
            <stop stop-color="#BBC1E1" offset="100%"></stop>
        </linearGradient>
        <linearGradient x1="-0.00575692964%" y1="50.1884932%" x2="100.060768%" y2="50.1884932%" id="linearGradient-38">
            <stop stop-color="#D6DCEE" offset="0%"></stop>
            <stop stop-color="#C4CAE5" offset="55.06%"></stop>
            <stop stop-color="#BBC1E1" offset="100%"></stop>
        </linearGradient>
        <linearGradient x1="-0.00575692964%" y1="50.2850069%" x2="100.060768%" y2="50.2850069%" id="linearGradient-39">
            <stop stop-color="#807DF9" offset="0%"></stop>
            <stop stop-color="#7F7CF8" offset="1.383388%"></stop>
            <stop stop-color="#5E5ACF" offset="44.8%"></stop>
            <stop stop-color="#4A46B6" offset="79.17%"></stop>
            <stop stop-color="#423EAD" offset="100%"></stop>
        </linearGradient>
        <linearGradient x1="-0.00575692964%" y1="50.1744154%" x2="100.060768%" y2="50.1744154%" id="linearGradient-40">
            <stop stop-color="#D6DCEE" offset="0%"></stop>
            <stop stop-color="#C4CAE5" offset="55.06%"></stop>
            <stop stop-color="#BBC1E1" offset="100%"></stop>
        </linearGradient>
        <linearGradient x1="0.089047619%" y1="49.9919877%" x2="100.060238%" y2="49.9919877%" id="linearGradient-41">
            <stop stop-color="#D6DCEE" offset="0%"></stop>
            <stop stop-color="#C4CAE5" offset="55.06%"></stop>
            <stop stop-color="#BBC1E1" offset="100%"></stop>
        </linearGradient>
        <linearGradient x1="0.089047619%" y1="50.0412943%" x2="100.060238%" y2="50.0412943%" id="linearGradient-42">
            <stop stop-color="#CED3F8" offset="0%"></stop>
            <stop stop-color="#C5CAF0" offset="15.88%"></stop>
            <stop stop-color="#ACB2D9" offset="68.2%"></stop>
            <stop stop-color="#A3A9D0" offset="100%"></stop>
        </linearGradient>
        <linearGradient x1="0.089047619%" y1="50.0912173%" x2="100.060238%" y2="50.0912173%" id="linearGradient-43">
            <stop stop-color="#D6DCEE" offset="0%"></stop>
            <stop stop-color="#C4CAE5" offset="55.06%"></stop>
            <stop stop-color="#BBC1E1" offset="100%"></stop>
        </linearGradient>
    </defs>
    <g id="Page-1" stroke="none" stroke-width="1" fill="none" fill-rule="evenodd">
        <g id="TRS_pc_960_tight" transform="translate(-256.000000, -1952.000000)">
            <g id="3" transform="translate(0.000000, 1800.000000)">
                <g id="3_pic" transform="translate(240.000000, 151.000000)">
                    <g id="3_pic_1">
                        <rect id="Rectangle" opacity="0.5" x="0" y="0" width="220" height="200"></rect>
                        <g transform="translate(16.000000, 1.000000)" fill-rule="nonzero" id="Group">
                            <g transform="translate(0.000000, 25.000000)" fill="#C8BDFF">
                                <path d="M93.9,113.8 C70.1,113.8 46.2,108.6 28,98.1 C10.4,87.9 0.7,74.4 0.7,60 C0.7,45.6 10.4,32 28,21.9 C64.3,0.9 123.4,0.9 159.7,21.9 C177.3,32 187,45.6 187,60 C187,74.4 177.3,87.9 159.7,98.1 L159.7,98.1 C141.5,108.6 117.7,113.8 93.9,113.8 Z M93.9,6.5 C70.1,6.5 46.3,11.7 28.2,22.2 C10.6,32.3 1,45.7 1,60 C1,74.3 10.6,87.7 28.2,97.8 C64.4,118.7 123.4,118.7 159.6,97.8 C177.1,87.7 186.8,74.3 186.8,60 C186.8,45.7 177.2,32.3 159.6,22.2 C141.4,11.7 117.6,6.5 93.9,6.5 Z" id="Shape"></path>
                                <path d="M1,107.2 C0.9,107.2 0.9,107.2 0.9,107.1 C0.9,107 0.9,106.9 1,106.9 L22.7,94.4 C22.8,94.4 22.9,94.4 22.9,94.5 C22.9,94.6 22.9,94.7 22.8,94.7 L1,107.2 C1.1,107.2 1.1,107.2 1,107.2 Z" id="Path"></path>
                                <path d="M153.5,19.2 C153.4,19.2 153.4,19.2 153.4,19.1 C153.4,19 153.4,18.9 153.5,18.9 L177.7,5.1 C177.8,5.1 177.9,5.1 177.9,5.2 C177.9,5.3 177.9,5.4 177.8,5.4 L153.5,19.2 C153.5,19.2 153.5,19.2 153.5,19.2 Z" id="Path"></path>
                                <path d="M34,19 C33.9,19 33.9,19 34,19 L3,1.2 C2.9,1.2 2.9,1.1 2.9,1 C2.9,0.9 3.1,0.9 3.1,0.9 L34,18.7 C34.1,18.7 34.1,18.8 34.1,18.9 C34.1,19 34,19 34,19 Z" id="Path"></path>
                                <path d="M200.5,115.2 C200.5,115.2 200.4,115.1 200.5,115.2 L164.9,94.7 C164.8,94.7 164.8,94.6 164.8,94.5 C164.8,94.4 165,94.4 165,94.4 L200.5,114.9 C200.6,114.9 200.6,115 200.6,115.1 C200.6,115.1 200.5,115.2 200.5,115.2 Z" id="Path"></path>
                                <path d="M167.4,95.9 C166,96.7 163.8,96.7 162.5,95.9 C161.1,95.1 161.1,93.8 162.5,93.1 C163.9,92.3 166.1,92.3 167.4,93.1 C168.8,93.8 168.8,95.1 167.4,95.9 Z" id="Path"></path>
                                <path d="M155.9,20.4 C154.5,21.2 152.3,21.2 151,20.4 C149.6,19.6 149.6,18.3 151,17.6 C152.4,16.8 154.6,16.8 155.9,17.6 C157.3,18.4 157.3,19.6 155.9,20.4 Z" id="Path"></path>
                                <path d="M25.2,95.9 C23.8,96.7 21.6,96.7 20.3,95.9 C18.9,95.1 18.9,93.8 20.3,93.1 C21.7,92.3 23.9,92.3 25.2,93.1 C26.5,93.9 26.5,95.1 25.2,95.9 Z" id="Path"></path>
                                <path d="M36.4,20.3 C35,21.1 32.8,21.1 31.5,20.3 C30.1,19.5 30.1,18.2 31.5,17.5 C32.9,16.7 35.1,16.7 36.4,17.5 C37.8,18.2 37.8,19.5 36.4,20.3 Z" id="Path"></path>
                            </g>
                            <g transform="translate(84.000000, 0.000000)">
                                <path d="M34.9,0.9 L3.7,18.9 C2.1,19.8 0.8,22 0.8,23.8 L0.8,46.7 C0.8,48.5 2.1,49.3 3.7,48.3 L8.7,45.4 L8.7,51 L12.7,43.1 L34.9,30.3 C36.5,29.4 37.8,27.2 37.8,25.4 L37.8,2.6 C37.8,0.8 36.5,0 34.9,0.9 Z" id="Path" fill="url(#linearGradient-1)"></path>
                                <path d="M31.7,13 C31.7,9.9 29.5,8.6 26.8,10.2 C24.1,11.8 21.9,15.6 21.9,18.7 C21.9,21.8 24.1,23.1 26.8,21.5 C29.5,20 31.7,16.2 31.7,13 Z" id="Path" fill="#F6F6FB"></path>
                                <path d="M26,16.5 C25.6,16.4 25.3,16 25.3,15.3 C25.3,14.3 26,13.1 26.8,12.6 C27.6,12.1 28.3,12.6 28.3,13.6 C28.3,14.3 28,15 27.6,15.6 C28.8,15.4 29.6,16.1 29.6,17.1 C29.4,17.2 26.8,18.7 26.8,18.7 C26.8,18.7 24.2,20.2 24,20.3 C24,19.3 24.8,17.6 26,16.5 Z" id="Path" fill="#FFAF6D"></path>
                                <polygon id="Path" fill="#F6F6FB" points="5 27.4 19 19.3 19 17 5 25.1"></polygon>
                                <polygon id="Path" fill="#F6F6FB" points="10 29.4 19 24.2 19 21.9 10 27.1"></polygon>
                            </g>
                            <g transform="translate(48.000000, 24.000000)">
                                <g transform="translate(21.000000, 14.000000)" id="Path">
                                    <path d="M1.5,5.8 C2.1,6.7 3,6 2.1,5 C1.2,3.9 0.4,4.3 1.5,5.8 Z" fill="#FACFA7"></path>
                                    <path d="M1.4,7.1 C2.3,7.8 2.8,6.9 1.7,6.1 C0.6,5.4 -0.1,6 1.4,7.1 Z" fill="#FACFA7"></path>
                                    <path d="M1.1,7.7 C1.9,8 2.1,7.2 1.1,6.9 C0,6.7 -0.3,7.3 1.1,7.7 Z" fill="#FACFA7"></path>
                                    <path d="M3.4,11.9 C3.4,11.1 2.6,10.3 2.4,9.8 C1.9,9.4 1.1,8.9 0.5,8.5 C0.1,8.2 3,8.5 3.5,7.8 C3.5,7.8 6.1,7.4 6.6,8.5 C7.2,10 6.6,10.8 6.6,11.7 C6.7,11.5 3.4,12.7 3.4,11.9 Z" fill="#FACFA7"></path>
                                    <g>
                                        <polygon fill="#6B67E9" points="4.4 9.9 0.3 8.2 3.7 0.7 7.8 2.4"></polygon>
                                        <polygon fill="#423EAF" points="0.7 8.1 3.9 1 7.4 2.5 4.2 9.6"></polygon>
                                        <polygon fill="#362E94" points="4.6 10.2 4.4 9.9 7.8 2.4 7.9 2.7"></polygon>
                                        <polygon fill="#5652CC" points="0.5 8.5 0.3 8.2 4.4 9.9 4.6 10.2"></polygon>
                                    </g>
                                    <path d="M7.1,8.1 C7.1,7.8 6.9,7.5 6.6,7.3 C6.6,6.3 6.7,5 6.7,5 C6.2,4.9 5.8,5.4 5.8,5.7 C5.7,6.1 5.9,7.1 5.5,7.5 C4.9,8.2 4.2,9.1 4.3,10.1 L5.1,10.6 L6.6,9.5 L7.1,9.9 C6.9,10 7.1,8.4 7.1,8.1 Z" fill="#FACFA7"></path>
                                </g>
                                <path d="M20.1,17.4 C19.9,17.3 19.2,17.1 18.9,17.1 C18.1,16.9 17.2,17.2 17.2,17.2 C16.7,17.3 16.2,17.9 15.9,19.1 L15.9,19.1 C15.6,19.6 15.4,19.9 15.4,19.9 L17.5,21.6 C18.1,20.5 18.7,21.4 19.8,20.3 C20.3,19.9 20.6,19.7 20.8,19.1 C20.8,18.9 20.7,18.8 20.6,18.6 C20.9,18.4 21.1,18.2 21.7,18 C22.6,17.8 23.8,17.7 23.8,17.4 C22.9,16.8 20.1,17.4 20.1,17.4 Z" id="Path" fill="#FACFA7"></path>
                                <rect id="Rectangle" fill="url(#linearGradient-2)" x="17.3" y="92.3" width="29.8" height="5.5"></rect>
                                <rect id="Rectangle" fill="url(#linearGradient-3)" x="3.8" y="84.4" width="29.8" height="5.5"></rect>
                                <g transform="translate(0.000000, 41.000000)" id="Path">
                                    <path d="M0.5,47.2 C0.5,42.9 3.2,42.8 3.2,42.8 C3.2,42.8 4.7,42.8 7.1,41.8 C9.5,40.8 12.8,41.2 10.9,44.6 C10.9,44.6 10.9,44.7 10.8,44.7 C10.7,44.9 10.5,45.1 10.2,45.2 L4.2,48.7 C3.4,49.3 0.5,48.1 0.5,47.2 Z" fill="url(#linearGradient-4)"></path>
                                    <path d="M0.5,46.8 C0.6,47.7 3.4,48.9 4.3,48.3 L10.3,44.8 C10.5,44.7 10.8,44.5 11.1,44.2 C11,44.3 11,44.4 10.9,44.6 C10.9,44.6 10.9,44.7 10.8,44.7 C10.7,44.9 10.5,45.1 10.2,45.2 L4.2,48.7 C3.3,49.2 0.8,48.2 0.4,47.3 C0.4,47.2 0.4,47.2 0.4,47.1 C0.5,47 0.5,46.9 0.5,46.8 Z" fill="#1E1C6B"></path>
                                    <path d="M1.6,42.2 C2.3,42.2 4.8,42.8 4.8,42.8 C4.8,42.8 4.8,43.1 5,43.4 C5,43.4 5,43.5 5.1,43.5 C5.6,43.8 6.1,44.4 4.9,45.1 C4,45.7 3.2,45.3 2.8,45 C2.7,44.7 2.4,44.4 2.1,44.2 C1.8,44 1.6,43.9 1.5,43.9 C1.5,43.9 1.5,43.8 1.5,43.8 C1.5,43.8 1.3,42.2 1.6,42.2 Z" fill="#FFFFFF"></path>
                                    <path d="M1.6,0.1 C4.3,0.1 11,0.3 13.7,0.3 C12.7,8.4 10.7,15.8 9.3,23.6 C7.9,31.2 6.2,36.6 4.8,42.9 C4.3,44.1 1.9,43.6 1.4,42.5 C1,36.7 0.6,29.5 2.3,22.8 C2.1,15.6 1.4,7.4 1.6,0.1 Z" fill="url(#linearGradient-5)"></path>
                                </g>
                                <g transform="translate(1.000000, 42.000000)" id="Path">
                                    <path d="M13.1,54.1 C13.1,49.8 15.8,49.7 15.8,49.7 C15.8,49.7 17.3,49.7 19.7,48.7 C22.1,47.7 25.4,48.1 23.5,51.5 C23.5,51.5 23.5,51.6 23.4,51.6 C23.3,51.8 23.1,52 22.8,52.1 L16.8,55.6 C16,56.2 13.1,55 13.1,54.1 Z" fill="url(#linearGradient-6)"></path>
                                    <path d="M13.1,53.7 C13.2,54.6 16,55.8 16.9,55.2 L22.9,51.7 C23.1,51.6 23.4,51.4 23.7,51.1 C23.6,51.2 23.6,51.3 23.5,51.5 C23.5,51.5 23.5,51.6 23.4,51.6 C23.3,51.8 23.1,52 22.8,52.1 L16.8,55.6 C16,56.1 13.4,55.1 13,54.2 C13,54.1 13,54.1 13,54 C13.1,53.9 13.1,53.8 13.1,53.7 Z" fill="#1E1C6B"></path>
                                    <path d="M14.2,49.1 C14.9,49.1 17.4,49.7 17.4,49.7 C17.4,49.7 17.4,50 17.6,50.3 C17.6,50.3 17.6,50.4 17.7,50.4 C18.2,50.7 18.7,51.3 17.5,52 C16.6,52.6 15.8,52.2 15.4,51.9 C15.3,51.6 15,51.3 14.7,51.1 C14.4,50.9 14.2,50.8 14.1,50.8 C14.1,50.8 14.1,50.7 14.1,50.7 C14.1,50.7 13.9,49.1 14.2,49.1 Z" fill="#FFFFFF"></path>
                                    <path d="M9.1,18.3 C8.4,14.8 -0.1,14.4 0.4,0.7 C3.1,0.3 16.5,6.6 19.2,6.2 C19.5,14.4 18.7,22 18.7,29.9 C18.5,37.7 17.8,43.2 17.4,49.7 C17.1,51 14.7,50.9 14,49.9 C12.7,44.2 11.1,37.2 11.7,30.3 C10.9,26.5 10,22.4 9.1,18.3 Z" fill="url(#linearGradient-7)"></path>
                                </g>
                                <path d="M7.6,16.1 C-1.9,22.4 -0.5,37.5 7.2,31.4 C7.2,31.5 1,25.4 7.6,16.1 Z" id="Path" fill="url(#linearGradient-8)"></path>
                                <g transform="translate(1.000000, 2.000000)" id="Path">
                                    <path d="M6.2,48.5 C12,51.7 18,51.7 20.1,47.8 C19.3,40.4 18.6,34.3 20.1,27.2 C19.7,23.3 19.4,22.7 19.9,20.4 C19.7,19.6 17.4,18 15.6,16.4 C13.7,14.7 12.5,13.1 11.5,12.9 C3.6,11.3 -0.2,25.4 0.4,40.4 C1,44.3 3.3,46.9 6.2,48.5 Z" fill="url(#linearGradient-9)"></path>
                                    <path d="M7.1,13.8 C8.8,12.6 8.6,11.8 8.3,10.1 C8,9.2 7.8,8.2 7.8,7.2 C7.8,3.4 10.2,0.2 13.1,0.4 C19,0.8 18,3.9 18,7.7 C18,11.2 16.4,13.6 13.8,14 C13.8,14.6 14,14.9 14.7,15.6 C12.8,16.8 10,16.2 8.8,15.7 C7.6,15.1 6.3,14.6 7.1,13.8 Z" fill="#FACFA7"></path>
                                </g>
                                <path d="M11.5,1.4 C12.3,1 12.9,1.2 13.4,0.9 C14.4,0.3 15.4,-0.1 15.9,0.2 C16.2,0.3 16.7,0.8 16.7,0.8 C17.2,1.3 18.3,0.2 18.6,1.6 C18.7,2 18.7,2.3 18.7,2.7 C21.2,3 20,5.3 18,9.7 C18,9 16.5,7.3 16.5,10.5 C16.5,10.8 16.8,10.9 16.5,11.4 C16.3,11.9 14.8,13 13.9,14 C12.6,15.3 11.8,14.1 9.6,14.4 C9.6,13.5 9.4,13 9,12.4 C8.8,12 7.6,10.8 7.6,8.8 C9.1,8.8 6,4.2 11.5,1.4 Z" id="Path" fill="#5455C4"></path>
                                <path d="M15.1,26.6 C15.8,30.1 17.3,37.3 21.7,39 C26.2,38.3 27.6,29.5 27.8,25.6 L24.1,25.9 C23.4,28.9 23,30.1 22.4,31.6 C22,29.1 21.5,25.4 20.7,22.5 C19.7,19.4 14.2,21.5 15.1,26.6 Z" id="Path" fill="url(#linearGradient-10)"></path>
                            </g>
                        </g>
                    </g>
                    <g id="3_pic_2" transform="translate(220.000000, 0.000000)">
                        <rect id="Rectangle" opacity="0.5" x="0" y="0" width="220" height="200"></rect>
                        <g transform="translate(16.000000, 27.000000)" fill-rule="nonzero">
                            <g id="Group" fill="#C8BDFF">
                                <path d="M93.9,113 C70.1,113 46.2,107.8 28,97.3 C10.4,87.1 0.7,73.5 0.7,59.1 C0.7,44.7 10.4,31.2 28,21 C64.3,0 123.4,0 159.7,21 C177.3,31.2 187,44.7 187,59.1 C187,73.5 177.3,87 159.7,97.2 L159.7,97.2 C141.5,107.7 117.7,113 93.9,113 Z M93.9,5.6 C70.1,5.6 46.3,10.8 28.2,21.3 C10.6,31.4 1,44.8 1,59.1 C1,73.4 10.6,86.8 28.2,96.9 C64.4,117.8 123.4,117.8 159.6,96.9 C177.1,86.8 186.8,73.4 186.8,59.1 C186.8,44.8 177.2,31.4 159.6,21.3 C141.4,10.8 117.6,5.6 93.9,5.6 Z" id="Shape"></path>
                                <path d="M1,106.3 C0.9,106.3 0.9,106.3 0.9,106.2 C0.9,106.1 0.9,106 1,106 L22.7,93.5 C22.8,93.5 22.9,93.5 22.9,93.6 C22.9,93.7 22.9,93.8 22.8,93.8 L1,106.3 C1.1,106.3 1.1,106.3 1,106.3 Z" id="Path"></path>
                                <path d="M153.5,18.3 C153.4,18.3 153.4,18.3 153.4,18.2 C153.4,18.1 153.4,18 153.5,18 L177.7,4.2 C177.8,4.2 177.9,4.2 177.9,4.3 C177.9,4.4 177.9,4.5 177.8,4.5 L153.5,18.3 L153.5,18.3 Z" id="Path"></path>
                                <path d="M34,18.2 C33.9,18.2 33.9,18.2 34,18.2 L3,0.3 C2.9,0.3 2.9,0.2 2.9,0.1 C2.9,0 3.1,0 3.1,0 L34,17.9 C34.1,17.9 34.1,18 34,18.2 C34.1,18.1 34,18.2 34,18.2 Z" id="Path"></path>
                                <path d="M200.5,114.3 C200.5,114.3 200.4,114.3 200.5,114.3 L164.9,93.8 C164.8,93.8 164.8,93.7 164.8,93.6 C164.8,93.5 165,93.5 165,93.5 L200.5,114 C200.6,114 200.6,114.1 200.6,114.2 C200.6,114.3 200.5,114.3 200.5,114.3 Z" id="Path"></path>
                                <path d="M167.4,95 C166,95.8 163.8,95.8 162.5,95 C161.1,94.2 161.1,92.9 162.5,92.2 C163.9,91.4 166.1,91.4 167.4,92.2 C168.8,93 168.8,94.2 167.4,95 Z" id="Path"></path>
                                <path d="M155.9,19.6 C154.5,20.4 152.3,20.4 151,19.6 C149.6,18.8 149.6,17.5 151,16.8 C152.4,16 154.6,16 155.9,16.8 C157.3,17.5 157.3,18.8 155.9,19.6 Z" id="Path"></path>
                                <path d="M25.2,95.1 C23.8,95.9 21.6,95.9 20.3,95.1 C18.9,94.3 18.9,93 20.3,92.3 C21.7,91.5 23.9,91.5 25.2,92.3 C26.5,93 26.5,94.3 25.2,95.1 Z" id="Path"></path>
                                <path d="M36.4,19.4 C35,20.2 32.8,20.2 31.5,19.4 C30.1,18.6 30.1,17.3 31.5,16.6 C32.9,15.8 35.1,15.8 36.4,16.6 C37.8,17.4 37.8,18.6 36.4,19.4 Z" id="Path"></path>
                            </g>
                            <g id="Group" transform="translate(38.000000, 3.000000)">
                                <polygon id="Path" fill="#0B0B33" points="53.7 73.3 42.9 67.1 44.1 58.9 57.2 66.4"></polygon>
                                <polygon id="Path" fill="#0B0B33" points="104.4 44 93.6 37.8 94.8 29.7 107.8 37.2"></polygon>
                                <g transform="translate(17.000000, 32.000000)" id="Path">
                                    <path d="M2.9,3.3 C1.1,2.2 0.5,1 0.9,0.7 C0.8,0.8 0.6,0.9 0.5,1 C-0.3,1.9 1.5,4.7 3.9,5.9 C5.7,6.8 7.1,5.3 7.1,3.8 C6.5,4.1 4.8,4.4 2.9,3.3 Z" fill="#1E1C6B"></path>
                                    <path d="M0.9,0.6 C0.5,0.9 1.1,2.1 2.9,3.2 C4.7,4.3 6.5,4 7,3.7 C7,3.2 6.8,2.7 6.4,2.3 C4.9,0.8 2.2,0 0.9,0.6 Z" fill="#5655C4"></path>
                                </g>
                                <g transform="translate(35.000000, 62.000000)">
                                    <path d="M12.3,5.6 C9.2,7.4 6.7,11.8 6.7,15.4 C6.7,19 9.2,20.5 12.3,18.7 C15.4,16.9 17.9,12.5 17.9,8.9 C18,5.2 15.4,3.8 12.3,5.6 Z M12.3,17.6 C9.7,19.1 7.5,17.9 7.5,14.8 C7.5,11.7 9.6,8 12.3,6.5 C14.9,5 17.1,6.2 17.1,9.3 C17.1,12.4 15,16.1 12.3,17.6 Z" id="Shape" fill="#B9BEE4"></path>
                                    <path d="M12.3,17.6 C14.9,16.1 17.1,12.4 17.1,9.3 C17.1,6.2 15,5 12.3,6.5 C12.2,6.6 12,6.7 11.9,6.7 C11.6,9.5 9.8,12.6 7.5,14.3 C7.5,14.5 7.5,14.6 7.5,14.8 C7.5,17.9 9.7,19.2 12.3,17.6 Z" id="Path" fill="url(#linearGradient-11)"></path>
                                    <path d="M12.3,4.4 C8.6,6.5 5.6,11.7 5.6,16 C5.6,20.3 8.6,22 12.3,19.9 C16,17.8 19,12.6 19,8.3 C19,4 16,2.2 12.3,4.4 Z M12.3,18.6 C9.2,20.4 6.7,18.9 6.7,15.3 C6.7,11.7 9.2,7.3 12.3,5.5 C15.4,3.7 17.9,5.2 17.9,8.8 C18,12.4 15.4,16.8 12.3,18.6 Z" id="Shape" fill="#362E92"></path>
                                    <path d="M16.9,3.8 L11.8,0.8 C10.6,0 8.8,0 6.9,1.2 C3.2,3.3 0.2,8.5 0.2,12.8 C0.2,15 1,16.5 2.2,17.2 L7.6,20.3 C6.4,19.6 5.7,18.1 5.7,16 C5.7,11.7 8.7,6.5 12.4,4.4 C14.1,3.4 15.7,3.2 16.9,3.8 Z" id="Path" fill="#20196F"></path>
                                    <g transform="translate(6.000000, 5.000000)" id="Path">
                                        <path d="M0.1,9.1 C0.1,6 2.2,2.3 4.9,0.8 C7.5,-0.7 9.7,0.5 9.7,3.6 C9.7,6.7 7.6,10.4 4.9,11.9 C2.3,13.4 0.1,12.1 0.1,9.1 Z" fill="url(#linearGradient-12)"></path>
                                        <path d="M5.2,5.2 C5.3,5.2 5.4,5.2 5.5,5.2 C6.2,3.4 7,0.1 4.9,1.3 C4.7,1.5 5.8,2.5 5.2,5.2 Z" fill="#1E1C6B"></path>
                                        <path d="M5.6,5.3 C5.7,5.4 5.7,5.4 5.7,5.5 C6.9,4 8.9,0.9 7,0.7 C6.8,0.7 7.1,2.7 5.6,5.3 Z" fill="#1E1C6B"></path>
                                        <path d="M5.8,5.7 C5.8,5.8 5.8,5.9 5.8,6.1 C7.2,5.3 9.7,3.2 8.7,1.7 C8.5,1.5 7.8,3.9 5.8,5.7 Z" fill="#1E1C6B"></path>
                                        <path d="M5.7,6.2 C5.7,6.3 5.6,6.5 5.5,6.6 C6.7,6.8 9.2,6.3 9.2,3.8 C9.2,3.5 7.7,5.7 5.7,6.2 Z" fill="#1E1C6B"></path>
                                        <path d="M5.5,6.8 C5.4,6.9 5.3,7 5.2,7.1 C5.9,8.1 7.6,9.4 8.7,6.6 C8.8,6.3 6.9,7.7 5.5,6.8 Z" fill="#1E1C6B"></path>
                                        <path d="M5.1,7.2 C5,7.3 4.9,7.3 4.8,7.4 C4.8,9 5.3,11.7 7.1,9.4 C7.3,9.1 5.6,9.3 5.1,7.2 Z" fill="#1E1C6B"></path>
                                        <path d="M4.6,7.4 C4.5,7.4 4.4,7.4 4.3,7.4 C3.6,9.2 2.8,12.5 4.9,11.3 C5.2,11.1 4,10.1 4.6,7.4 Z" fill="#1E1C6B"></path>
                                        <path d="M4.3,7.3 C4.2,7.2 4.2,7.2 4.2,7.1 C3,8.6 1,11.7 2.9,11.9 C3,11.9 2.7,9.9 4.3,7.3 Z" fill="#1E1C6B"></path>
                                        <path d="M4.1,6.9 C4.1,6.8 4.1,6.7 4.1,6.5 C2.7,7.3 0.2,9.4 1.2,10.9 C1.3,11.1 2,8.7 4.1,6.9 Z" fill="#1E1C6B"></path>
                                        <path d="M4.1,6.4 C4.1,6.3 4.2,6.1 4.3,6 C3.1,5.8 0.6,6.3 0.6,8.8 C0.6,9.1 2.1,6.9 4.1,6.4 Z" fill="#1E1C6B"></path>
                                        <path d="M4.4,5.8 C4.5,5.7 4.6,5.6 4.7,5.5 C4,4.5 2.3,3.2 1.2,6 C1.1,6.3 2.9,4.9 4.4,5.8 Z" fill="#1E1C6B"></path>
                                        <path d="M4.8,5.4 C4.9,5.3 5,5.3 5.1,5.2 C5.1,3.6 4.6,0.9 2.8,3.2 C2.5,3.5 4.3,3.3 4.8,5.4 Z" fill="#1E1C6B"></path>
                                    </g>
                                </g>
                                <g transform="translate(85.000000, 33.000000)">
                                    <path d="M13,5.3 C9.9,7.1 7.4,11.5 7.4,15.1 C7.4,18.7 9.9,20.2 13,18.4 C16.1,16.6 18.6,12.2 18.6,8.6 C18.6,5 16.1,3.5 13,5.3 Z M13,17.4 C10.4,18.9 8.2,17.7 8.2,14.6 C8.2,11.5 10.3,7.8 13,6.3 C15.6,4.8 17.8,6 17.8,9.1 C17.8,12.1 15.6,15.9 13,17.4 Z" id="Shape" fill="#B9BEE4"></path>
                                    <path d="M13,17.4 C15.6,15.9 17.8,12.2 17.8,9.1 C17.8,6 15.7,4.8 13,6.3 C12.9,6.4 12.7,6.5 12.6,6.5 C12.3,9.3 10.5,12.4 8.2,14.1 C8.2,14.3 8.2,14.4 8.2,14.6 C8.2,17.7 10.3,18.9 13,17.4 Z" id="Path" fill="url(#linearGradient-13)"></path>
                                    <path d="M13,4.1 C9.3,6.2 6.3,11.4 6.3,15.7 C6.3,20 9.3,21.7 13,19.6 C16.7,17.5 19.7,12.3 19.7,8 C19.7,3.7 16.7,2 13,4.1 Z M13,18.4 C9.9,20.2 7.4,18.7 7.4,15.1 C7.4,11.5 9.9,7.1 13,5.3 C16.1,3.5 18.6,5 18.6,8.6 C18.6,12.2 16.1,16.6 13,18.4 Z" id="Shape" fill="#362E92"></path>
                                    <path d="M17.5,3.6 L12.4,0.6 C11.2,-0.2 9.4,-0.2 7.5,1 C3.8,3.1 0.8,8.3 0.8,12.6 C0.8,14.8 1.6,16.3 2.8,17 L8.2,20.1 C7,19.4 6.3,17.9 6.3,15.8 C6.3,11.5 9.3,6.3 13,4.2 C14.7,3.1 16.3,3 17.5,3.6 Z" id="Path" fill="#20196F"></path>
                                    <g transform="translate(6.000000, 4.000000)" id="Path">
                                        <path d="M0.8,9.8 C0.8,6.7 2.9,3 5.6,1.5 C8.2,0 10.4,1.2 10.4,4.3 C10.4,7.4 8.3,11.1 5.6,12.6 C2.9,14.1 0.8,12.9 0.8,9.8 Z" fill="url(#linearGradient-14)"></path>
                                        <path d="M5.9,5.9 C6,5.9 6.1,5.9 6.2,5.9 C6.9,4.1 7.7,0.8 5.6,2 C5.3,2.2 6.5,3.3 5.9,5.9 Z" fill="#1E1C6B"></path>
                                        <path d="M6.3,6 C6.4,6.1 6.4,6.1 6.4,6.2 C7.6,4.7 9.6,1.6 7.7,1.4 C7.5,1.5 7.8,3.5 6.3,6 Z" fill="#1E1C6B"></path>
                                        <path d="M6.4,6.4 C6.4,6.5 6.4,6.6 6.4,6.8 C7.8,6 10.3,3.9 9.3,2.4 C9.2,2.2 8.5,4.6 6.4,6.4 Z" fill="#1E1C6B"></path>
                                        <path d="M6.4,6.9 C6.4,7 6.3,7.2 6.2,7.3 C7.4,7.5 9.9,7 9.9,4.5 C9.9,4.3 8.4,6.5 6.4,6.9 Z" fill="#1E1C6B"></path>
                                        <path d="M6.1,7.5 C6,7.6 5.9,7.7 5.8,7.8 C6.5,8.8 8.2,10.1 9.3,7.3 C9.4,7 7.6,8.4 6.1,7.5 Z" fill="#1E1C6B"></path>
                                        <path d="M5.7,8 C5.6,8.1 5.5,8.1 5.4,8.2 C5.4,9.8 5.9,12.5 7.7,10.2 C8,9.8 6.2,10 5.7,8 Z" fill="#1E1C6B"></path>
                                        <path d="M5.3,8.2 C5.2,8.2 5.1,8.2 5,8.2 C4.3,10 3.5,13.3 5.6,12.1 C5.9,11.9 4.7,10.8 5.3,8.2 Z" fill="#1E1C6B"></path>
                                        <path d="M4.9,8.1 C4.8,8 4.8,8 4.8,7.9 C3.6,9.4 1.6,12.5 3.5,12.7 C3.7,12.6 3.4,10.6 4.9,8.1 Z" fill="#1E1C6B"></path>
                                        <path d="M4.7,7.7 C4.7,7.6 4.7,7.5 4.7,7.3 C3.3,8.1 0.8,10.2 1.8,11.7 C2,11.9 2.7,9.4 4.7,7.7 Z" fill="#1E1C6B"></path>
                                        <path d="M4.8,7.1 C4.8,7 4.9,6.8 5,6.7 C3.8,6.5 1.3,7 1.3,9.5 C1.3,9.8 2.8,7.6 4.8,7.1 Z" fill="#1E1C6B"></path>
                                        <path d="M5,6.6 C5.1,6.5 5.2,6.4 5.3,6.3 C4.6,5.3 2.9,4 1.8,6.8 C1.7,7.1 3.6,5.7 5,6.6 Z" fill="#1E1C6B"></path>
                                        <path d="M5.5,6.1 C5.6,6 5.7,6 5.8,5.9 C5.8,4.3 5.3,1.6 3.5,3.9 C3.2,4.3 4.9,4.1 5.5,6.1 Z" fill="#1E1C6B"></path>
                                    </g>
                                </g>
                                <g transform="translate(0.000000, 21.000000)" id="Path">
                                    <path d="M39.2,55.2 C38.6,55.6 38,55.9 37.4,56.3 C30.5,60.3 19.4,61.9 13.8,58.6 C10.6,56.8 8.6,55.6 8.6,55.6 C8.6,55.6 6.8,54.6 3.5,52.7 C1.8,51.7 0.7,49 0.5,46.4 C0.7,49.2 1.9,54.9 4.3,57.3 C4.3,57.3 10.2,60.7 13.8,62.8 C24.6,66.8 35.6,62.8 37.4,61.8 C37.8,61.5 38.7,61 39.8,60.4 C39.3,59.5 39,58.3 39.1,56.9 C39,56.4 39.1,55.8 39.2,55.2 Z" fill="url(#linearGradient-15)"></path>
                                    <path d="M48.9,39.7 L48.9,43.1 C51.6,42.4 53.7,43.7 54.3,46.5 L89.8,26 C90.5,21.5 93.8,16.7 97.5,14.6 C101.1,12.6 104.1,13.8 104.9,17.3 L109.1,14.9 L109.1,5 L48.9,39.7 Z" fill="#E96675"></path>
                                    <path d="M109.2,14.1 C109.2,14.1 109,14.9 107.9,15.5 C107.8,15.6 106.7,16.2 104.9,17.2 C105,17.8 105.1,18.4 105.1,19.1 C105.1,20.3 104.8,21.7 104.4,22.9 C105.2,22.4 105.7,22.1 105.8,22.1 C107.5,21.1 109.2,16.5 109.2,14.7 C109.2,14.5 109.2,14.1 109.2,14.1 Z" fill="#D14768"></path>
                                    <path d="M90.4,31.1 C89.9,30.2 89.6,29 89.7,27.6 C89.7,27.1 89.8,26.5 89.9,25.9 C77.7,33 62.3,41.8 54.3,46.4 C54.4,47 54.5,47.6 54.5,48.3 C54.5,49.5 54.2,50.9 53.8,52.1 C62.3,47.4 78.4,38.1 90.4,31.1 Z" fill="#D14768"></path>
                                    <path d="M106.4,0.6 C107,1.2 107.1,2.9 105.6,3.7 C94.2,10.3 47.8,37.1 47.8,37.1 L48.8,39.8 L109.1,5 C109.2,4.9 109.2,2.9 106.4,0.6 Z" fill="#F1B177"></path>
                                    <path d="M48.9,39.7 C45.9,41.4 34,49.7 24.2,52 C20.2,52.9 16.4,52.5 13.8,50.9 C10.6,49.1 8.6,47.9 8.6,47.9 C8.6,47.9 6.8,46.9 3.5,44.9 C0.1,42.9 -0.7,30.4 17.9,19.6 C19.7,20.6 43.1,34.1 47.9,36.9 C48.3,38.2 48.9,39.7 48.9,39.7 Z" fill="#F1B177"></path>
                                    <path d="M47.9,37.1 C44.6,38.9 30.5,48 24.8,48.1 C23.5,48.1 32.4,45.7 43.5,36.8 C44.4,37 47.9,37.1 47.9,37.1 Z" fill="url(#linearGradient-16)"></path>
                                    <path d="M17.8,19.7 C15,22.1 9.2,25.7 5.1,34.7 C3.3,38.6 10.1,26.7 17.7,21.4 C17.8,20.6 17.8,19.7 17.8,19.7 Z" fill="url(#linearGradient-17)"></path>
                                </g>
                                <path d="M108.8,24.6 C108.8,25.1 108.8,26.2 107.6,26.8 C106.5,27.5 105.9,27.8 105.9,27.8 C106.1,29.1 107,31.3 109.2,30.5 C109.2,29.5 109.2,25.9 109.2,25.9 C109.2,25.6 109.2,24.7 108.8,24.6 Z" id="Path" fill="#D14768"></path>
                                <polygon id="Path" fill="#F28871" points="54 61.7 52.6 62.5 52.6 61.8 54 61"></polygon>
                                <g transform="translate(17.000000, 0.000000)" id="Path">
                                    <path d="M78.2,12.2 L58.8,1 C56.5,-0.3 52.4,-0.2 49.7,1.4 L17.2,20.1 C16.1,20.7 15.1,21.5 14.2,22.3 C16.9,25.6 20.6,28.7 25.4,31.5 C30.3,34.3 35.9,36.5 41.9,38.1 L77.6,17.5 C80.3,15.9 80.6,13.6 78.2,12.2 Z" fill="#5652CC"></path>
                                    <g transform="translate(0.000000, 12.000000)">
                                        <path d="M89.4,9.6 C87,7.1 80.6,1.6 78.2,0.2 C80.5,1.5 80.2,3.9 77.5,5.4 L41.8,26 L30.8,45.9 C30.8,45.9 77.2,19.1 88.6,12.5 C90.1,11.9 90,10.2 89.4,9.6 Z" fill="url(#linearGradient-18)"></path>
                                        <g transform="translate(0.000000, 9.000000)">
                                            <path d="M89.4,0.6 C89.2,0.4 89.1,0.3 88.9,0.1 C89.5,0.7 89.6,2.4 88.1,3.2 C77.8,9.2 39,31.6 31.5,35.9 L30.8,37.1 C30.8,37.1 77.2,10.3 88.6,3.7 C90.1,2.9 90,1.2 89.4,0.6 Z" fill="#1E1C6B"></path>
                                            <path d="M43.2,16.3 C42.7,16.6 42,17 40.7,16.8 C35.1,15.3 29.9,13.2 25.3,10.5 C20.5,7.8 16.8,4.6 14.1,1.3 C13.2,2.1 11.9,3.8 11.6,4.2 L0.8,19.7 C-1,22.2 6.3,26.9 12.1,30.3 C17.9,33.7 28.2,38.5 30.8,37.1 L33.9,35.3 C34,35.3 43.2,16.3 43.2,16.3 Z" fill="url(#linearGradient-19)"></path>
                                            <path d="M24.3,11.8 C19.8,9.2 16.3,6.2 13.7,3.1 C12.8,3.9 11.6,5.5 11.3,5.9 L2.1,19.2 C0.6,21.6 7.4,26 12.9,29.2 C18.1,32.2 27.2,36.5 30.2,35.8 L39.9,18.1 C34.2,16.6 28.9,14.5 24.3,11.8 Z" fill="url(#linearGradient-20)"></path>
                                            <path d="M39,17.8 C33.7,16.3 28.7,14.3 24.3,11.8 C19.8,9.2 16.3,6.2 13.7,3.1 C12.8,3.9 11.6,5.5 11.3,5.9 L5.6,14.2 C9.4,14.6 16.1,20.2 19.5,25.4 C23.1,30.9 32.2,24.9 39,17.8 Z" fill="url(#linearGradient-21)"></path>
                                        </g>
                                        <polygon fill="#1E1C6B" points="55.1 32.1 54 19 57.1 17.3 58.2 30.3"></polygon>
                                        <polygon fill="#1E1C6B" points="74 21.1 66.8 11.7 71.2 9.1 78.4 18.6"></polygon>
                                    </g>
                                </g>
                                <g transform="translate(51.000000, 51.000000)" id="Path">
                                    <path d="M3.3,4.1 C1.4,3.7 0.6,2.6 1,1.8 C0.9,1.9 0.8,2.1 0.6,2.2 C-0.2,3.3 -0.8,5.5 5.8,6.1 C9.4,6.4 9.6,5.2 8.8,4 C7.5,5.4 5.2,4.5 3.3,4.1 Z" fill="url(#linearGradient-22)"></path>
                                    <path d="M6.4,1.5 C5.2,0.9 2.9,-0.3 1,1.8 C0.6,2.6 1.4,3.6 3.3,4.1 C5.2,4.5 7.4,5.4 8.9,4.1 C8.2,2.9 6.9,1.8 6.4,1.5 Z" fill="#5655C4"></path>
                                </g>
                                <path d="M109.2,25.9 C109.2,26.5 109,27.1 108,27.5 C106.8,28 108.4,29.4 109.2,29.4 C109.2,28.1 109.2,25.9 109.2,25.9 Z" id="Path" fill="url(#linearGradient-23)"></path>
                                <path d="M58.9,39.1 L95.4,18 C97.6,16.7 98.2,14.9 97.1,13.6 C96.3,13 95.7,12.6 95.3,12.3 C97.6,13.6 97.3,16 94.6,17.5 L58.9,38.1 L58.5,38.9 C58.6,39 58.7,39 58.9,39.1 Z" id="Path" fill="#1E1C6B"></path>
                                <g transform="translate(3.000000, 74.000000)" id="Path">
                                    <path d="M1.7,2.6 C1.5,2.1 1.4,1.8 1.3,1.3 C1.3,1.2 1.3,1.1 1.3,1 C0.9,0.8 0.6,1 0.7,1.6 C0.8,2.1 0.9,2.4 1.1,2.9 C1.3,3.5 1.9,4.1 2.3,4.3 C4.8,5.7 8.5,7.9 10.9,9.3 C11.2,9.5 11.4,9.4 11.4,9 C9,7.6 6.1,6 3.7,4.5 C3.3,4.2 2,3.2 1.7,2.6 Z" fill="#D14768"></path>
                                    <path d="M11,7.3 C10.8,6.7 10.3,6.1 9.9,5.9 C7.4,4.5 3.7,2.3 1.3,0.9 L1.3,0.9 C1.3,1 1.3,1.1 1.3,1.2 C1.4,1.7 1.5,2 1.7,2.5 C1.9,3.1 2.6,3.8 3,4 C5.5,5.4 8.9,7.4 11.4,8.8 C11.4,8.7 11.4,8.6 11.3,8.5 C11.2,8.1 11.1,7.8 11,7.3 Z" fill="#1E1C6B"></path>
                                </g>
                                <path d="M17.4,82.5 C17.3,82.2 17.3,81.9 17.3,81.7 C17.2,81.7 17.2,81.7 17.1,81.7 C16.6,81.6 16.6,82.1 16.7,82.8 C16.9,83.4 17.1,84 17.8,84.3 C18.5,84.5 20.5,84.7 21.8,84.8 C22.1,84.8 22.2,84.7 22.1,84.5 C20.9,84.4 19.1,84.3 18.5,84.1 C17.9,83.7 17.6,83.1 17.4,82.5 Z" id="Path" fill="#D14768"></path>
                                <path d="M19.5,82.1 C19,82 18.2,82 17.3,81.8 C17.3,82 17.3,82.3 17.4,82.6 C17.6,83.2 17.8,83.8 18.5,84.1 C19.1,84.3 20.9,84.4 22.1,84.5 C22.1,83.7 20.4,82.2 19.5,82.1 Z" id="Path" fill="#1E1C6B"></path>
                                <g transform="translate(17.000000, 82.000000)" id="Path">
                                    <polygon fill="url(#linearGradient-24)" points="2.7 0.6 1 1.6 0.5 0.6 1.5 0.1"></polygon>
                                    <path d="M0.4,0.9 C0.4,0.7 0.6,0.6 0.8,0.7 C1,0.8 1.2,1.1 1.2,1.4 C1.2,1.7 1,1.7 0.8,1.6 C0.6,1.4 0.4,1.1 0.4,0.9 Z" fill="#807EF1"></path>
                                    <path d="M0.6,1 C0.6,0.9 0.7,0.8 0.8,0.9 C0.9,1 1,1.1 1,1.2 C1,1.3 0.9,1.4 0.8,1.3 C0.7,1.3 0.6,1.1 0.6,1 Z" fill="#F5F5FA"></path>
                                </g>
                                <g transform="translate(18.000000, 82.000000)" id="Path">
                                    <polygon fill="url(#linearGradient-25)" points="2.9 0.9 1.2 1.9 0.7 0.9 1.9 0.3"></polygon>
                                    <path d="M0.6,1.2 C0.6,1 0.8,0.9 1,1 C1.2,1.1 1.4,1.4 1.4,1.7 C1.4,2 1.2,2 1,1.9 C0.7,1.7 0.6,1.4 0.6,1.2 Z" fill="#807EF1"></path>
                                    <path d="M0.7,1.3 C0.7,1.2 0.8,1.1 0.9,1.2 C1,1.3 1.1,1.4 1.1,1.5 C1.1,1.6 1,1.7 0.9,1.6 C0.8,1.6 0.7,1.4 0.7,1.3 Z" fill="#F5F5FA"></path>
                                </g>
                                <g transform="translate(19.000000, 82.000000)" id="Path">
                                    <path d="M2.6,1.5 C2.4,1.2 2.1,1 1.8,0.7 L1.1,1.1 L1.6,2.1 L2.6,1.5 Z" fill="url(#linearGradient-26)"></path>
                                    <path d="M0.9,1.4 C0.9,1.2 1.1,1.1 1.3,1.2 C1.5,1.3 1.7,1.6 1.7,1.9 C1.7,2.1 1.5,2.2 1.3,2.1 C1,1.9 0.9,1.6 0.9,1.4 Z" fill="#807EF1"></path>
                                    <path d="M1.1,1.5 C1.1,1.4 1.2,1.3 1.3,1.4 C1.4,1.5 1.5,1.6 1.5,1.7 C1.5,1.8 1.4,1.9 1.3,1.8 C1.1,1.8 1.1,1.6 1.1,1.5 Z" fill="#F5F5FA"></path>
                                </g>
                                <g transform="translate(0.000000, 56.000000)" id="Path">
                                    <path d="M3.3,16.3 C3.5,16.4 3.8,16.2 4,16.3 C7,18 7.9,18.6 7.9,18.6 C7.9,18.6 9.7,19.6 12.6,21.3 C12.9,21.4 13.1,22 13.4,22.2 C16.2,23.8 19.9,24.7 24.7,24 C26.1,23.8 27.6,23.4 29.2,22.8 C32.1,21.6 34.9,18.2 35.5,15.6 C35.7,14.6 34.7,14.5 33.8,14.9 C31.2,16.2 27.2,17.1 24.2,17.5 C19.6,18.1 16.3,17.3 13.6,15.8 C10.4,14 8.4,12.8 8.4,12.8 C8.4,12.8 6.6,11.8 3.3,9.8 C1.5,8.8 0.5,5 2.3,0.2 C1.7,0.9 1.3,1.7 1,2.7 C0.2,5.7 0.3,9.4 0.3,9.4 C0.3,11.4 1.5,15.3 3.3,16.3 Z" fill="url(#linearGradient-27)"></path>
                                    <path d="M34.1,15 C34,15 34,15 33.9,15.1 C31.3,16.4 27.3,17.3 24.3,17.7 C19.7,18.3 16.4,17.5 13.7,16 C10.5,14.2 6.7,12 3.4,10.1 C1.6,9.1 0.6,5.3 2.4,0.5 C1.8,1.2 1.4,2 1.1,3 C1,3.3 1,3.5 0.9,3.8 C0.3,7.2 1.3,9.8 2.7,10.6 C6,12.6 9.8,14.7 13,16.5 C15.7,18 19.9,19.1 24.5,18.4 C27.5,18 31,17.1 33.7,15.9 C34.7,15.5 35.4,14.9 35.6,15.1 C35.4,14.7 34.7,14.7 34.1,15 Z" fill="url(#linearGradient-28)"></path>
                                    <polygon fill="#E8ECF7" points="7.1 13.1 10 14.7 9.3 19.4 6.1 17.6"></polygon>
                                </g>
                                <g transform="translate(78.000000, 7.000000)" id="Path">
                                    <path d="M6.5,2.4 C6.2,2.2 6,2.1 5.8,2 C4.7,2 4.1,2.2 2.3,2.2 C1.6,2.6 0.2,3.4 0.2,3.4 L0.9,3.8 C0.9,3.8 5.2,3.1 6.5,2.4 Z" fill="#4A4ABC"></path>
                                    <path d="M0.9,3.8 C0.9,3.8 2.2,1.3 3.4,0.5 C3.4,1.1 3,1.5 3,2.5 C2.3,3 0.9,3.8 0.9,3.8 Z" fill="#423EAF"></path>
                                    <path d="M3.4,0.6 L2.7,0.2 C1.5,1 0.2,3.5 0.2,3.5 L0.9,3.9 C0.9,3.8 2.2,1.3 3.4,0.6 Z" fill="#6B67E9"></path>
                                </g>
                            </g>
                            <g id="Group" transform="translate(15.000000, 45.000000)">
                                <path d="M6.5,7.4 C6.5,6.9 6.6,6.5 6.7,6.1 C5.5,6 4.6,6.8 4.6,8.5 C4.6,10.6 6.1,13.2 7.9,14.3 C9.3,15.1 10.5,14.8 11,13.7 C10.6,13.7 10.2,13.5 9.8,13.3 C8,12.1 6.5,9.5 6.5,7.4 Z" id="Path" fill="#E96675"></path>
                                <path d="M14.8,6.5 C12.1,1.7 7.6,-0.8 4.8,0.8 L3,1.8 C5.8,0.2 10.2,2.8 13,7.5 C15.7,12.3 15.7,17.4 13,19 L14.8,17.9 C17.6,16.4 17.6,11.2 14.8,6.5 Z" id="Path" fill="url(#linearGradient-29)"></path>
                                <path d="M13,7.5 C10.3,2.7 5.8,0.2 3,1.8 C0.2,3.4 0.2,8.5 3,13.3 L8,21.9 L13,19 C15.7,17.4 15.7,12.3 13,7.5 Z M8,14.2 C6.2,13.1 4.7,10.6 4.7,8.4 C4.7,6.3 6.2,5.4 8,6.5 C9.8,7.6 11.3,10.1 11.3,12.3 C11.3,14.4 9.8,15.3 8,14.2 Z" id="Shape" fill="#F28871"></path>
                            </g>
                            <path d="M35.7,62.8 C32,62.8 30.1,63 28,64 L23,66.9 L35.5,69.3 L35.7,62.8 Z" id="Path" fill="url(#linearGradient-30)"></path>
                        </g>
                    </g>
                    <g id="3_pic_3" transform="translate(0.000000, 200.000000)">
                        <rect id="Rectangle" opacity="0.5" x="0" y="0" width="220" height="200"></rect>
                        <g transform="translate(16.000000, 25.000000)" fill-rule="nonzero" id="Group">
                            <g fill="#C8BDFF">
                                <path d="M93.9,113.7 C70.1,113.7 46.2,108.5 28,98 C10.4,87.8 0.7,74.3 0.7,59.9 C0.7,45.5 10.4,32 28,21.8 C64.3,0.8 123.4,0.8 159.7,21.8 C177.3,32 187,45.5 187,59.9 C187,74.3 177.3,87.8 159.7,98 L159.7,98 C141.5,108.5 117.7,113.7 93.9,113.7 Z M93.9,6.4 C70.1,6.4 46.3,11.6 28.2,22.1 C10.6,32.2 1,45.6 1,59.9 C1,74.2 10.6,87.6 28.2,97.7 C64.4,118.6 123.4,118.6 159.6,97.7 C177.1,87.6 186.8,74.2 186.8,59.9 C186.8,45.6 177.2,32.2 159.6,22.1 C141.4,11.6 117.6,6.4 93.9,6.4 Z" id="Shape"></path>
                                <path d="M1,107.1 C0.9,107.1 0.9,107.1 0.9,107 C0.9,106.9 0.9,106.8 1,106.8 L22.7,94.3 C22.8,94.3 22.9,94.3 22.9,94.4 C22.9,94.5 22.9,94.6 22.8,94.6 L1,107.1 C1.1,107.1 1.1,107.1 1,107.1 Z" id="Path"></path>
                                <path d="M153.5,19.1 C153.4,19.1 153.4,19.1 153.4,19 C153.4,18.9 153.4,18.8 153.5,18.8 L177.6,5 C177.7,5 177.8,5 177.8,5.1 C177.8,5.2 177.8,5.3 177.7,5.3 L153.5,19.1 C153.5,19.1 153.5,19.1 153.5,19.1 Z" id="Path"></path>
                                <path d="M34,18.9 C33.9,18.9 33.9,18.9 34,18.9 L3,1.1 C2.9,1.1 2.9,1 2.9,0.9 C2.9,0.8 3.1,0.8 3.1,0.8 L34,18.6 C34.1,18.6 34.1,18.7 34.1,18.8 C34.1,18.9 34,18.9 34,18.9 Z" id="Path"></path>
                                <path d="M200.5,115.1 C200.5,115.1 200.4,115.1 200.5,115.1 L164.9,94.6 C164.8,94.6 164.8,94.5 164.8,94.4 C164.8,94.3 165,94.3 165,94.3 L200.5,114.8 C200.6,114.8 200.6,114.9 200.6,115 C200.6,115 200.5,115.1 200.5,115.1 Z" id="Path"></path>
                                <path d="M167.4,95.8 C166,96.6 163.8,96.6 162.5,95.8 C161.1,95 161.1,93.7 162.5,93 C163.9,92.2 166.1,92.2 167.4,93 C168.8,93.7 168.8,95 167.4,95.8 Z" id="Path"></path>
                                <path d="M155.9,20.3 C154.5,21.1 152.3,21.1 151,20.3 C149.6,19.5 149.6,18.2 151,17.5 C152.4,16.7 154.6,16.7 155.9,17.5 C157.3,18.3 157.3,19.5 155.9,20.3 Z" id="Path"></path>
                                <path d="M25.2,95.8 C23.8,96.6 21.6,96.6 20.3,95.8 C18.9,95 18.9,93.7 20.3,93 C21.7,92.2 23.9,92.2 25.2,93 C26.5,93.8 26.5,95.1 25.2,95.8 Z" id="Path"></path>
                                <path d="M36.4,20.2 C35,21 32.8,21 31.5,20.2 C30.1,19.4 30.1,18.1 31.5,17.4 C32.9,16.6 35.1,16.6 36.4,17.4 C37.8,18.1 37.8,19.4 36.4,20.2 Z" id="Path"></path>
                            </g>
                            <g transform="translate(32.000000, 0.000000)">
                                <g transform="translate(45.000000, 0.000000)">
                                    <path d="M31.4,59.1 C31.4,60.8 30.2,62.9 28.7,63.8 L4.9,77.5 C3.4,78.4 2.2,77.7 2.2,75.9 L2.2,20.2 C2.2,18.5 3.4,16.4 4.9,15.5 L28.7,1.8 C30.2,0.9 31.4,1.6 31.4,3.4 L31.4,59.1 Z" id="Path" fill="#E6EAF5"></path>
                                    <path d="M28.7,0.4 L28.7,0.4 C28.2,0.1 27.5,0.1 26.7,0.5 L3,14.2 C1.5,15.1 0.3,17.2 0.3,18.9 L0.3,74.7 C0.3,75.6 0.6,76.2 1.1,76.4 L1.1,76.4 L3,77.6 C2.5,77.3 2.2,76.7 2.2,75.9 L2.2,20.2 C2.2,18.5 3.4,16.4 4.9,15.5 L28.7,1.8 C29.5,1.4 30.2,1.3 30.7,1.7 L30.7,1.7 L28.7,0.4 Z" id="Shape" fill="url(#linearGradient-31)"></path>
                                    <polygon id="Path" fill="url(#linearGradient-32)" points="29.7 5.1 29.7 56.8 3.9 71.7 3.9 20.2"></polygon>
                                    <path d="M14.9,68.5 C14.9,69.7 15.8,70.2 16.8,69.6 C17.9,69 18.7,67.5 18.7,66.3 C18.7,65.1 17.8,64.6 16.8,65.2 C15.8,65.8 14.9,67.3 14.9,68.5 Z M15.5,68.2 C15.5,67.3 16.1,66.3 16.9,65.8 C17.7,65.4 18.3,65.7 18.3,66.6 C18.3,67.5 17.7,68.5 16.9,69 C16.1,69.4 15.5,69.1 15.5,68.2 Z" id="Shape" fill="#B9BEE4"></path>
                                </g>
                                <g transform="translate(64.000000, 3.000000)" id="Path">
                                    <path d="M41.3,1.4 L3.5,23.2 C1.9,24.1 0.6,26.4 0.6,28.2 L0.6,51.6 C0.6,53.5 1.9,54.2 3.5,53.3 L41.3,31.5 C42.9,30.6 44.2,28.3 44.2,26.5 L44.2,3 C44.2,1.2 42.9,0.4 41.3,1.4 Z" fill="url(#linearGradient-33)"></path>
                                    <path d="M10.9,33.5 L10.9,26.9 C7.7,28.7 5.2,33.2 5.2,36.8 C5.2,40.5 7.8,41.9 10.9,40.1 C14.1,38.3 16.6,33.8 16.6,30.2 C16.6,29.5 16.5,28.9 16.3,28.3 L10.9,33.5 Z" fill="#C4C9E5"></path>
                                    <path d="M16.4,28.3 C15.7,26.1 13.5,25.4 10.9,26.9 L10.9,33.5 L16.4,28.3 Z" fill="#FFFFFF"></path>
                                    <polygon fill="#C4C9E5" points="20.5 22.5 30.1 17 30.1 15.6 20.5 21.1"></polygon>
                                    <polygon fill="#C4C9E5" points="20.5 26.4 30.1 20.9 30.1 19.4 20.5 24.9"></polygon>
                                    <polygon fill="#FFFFFF" points="22.4 33.1 21.1 33.9 21.1 32.4 22.4 31.7"></polygon>
                                    <polygon fill="#FFFFFF" points="25 31.7 23.7 32.4 23.7 30.9 25 30.2"></polygon>
                                    <polygon fill="#FFFFFF" points="27.5 30.2 26.2 30.9 26.2 29.4 27.5 28.7"></polygon>
                                </g>
                                <g transform="translate(0.000000, 9.000000)" id="Path">
                                    <path d="M37.9,1 L3,21.2 C1.5,22.1 0.3,24.2 0.3,25.9 L0.3,47.5 C0.3,49.2 1.5,49.9 3,49.1 L30.9,33 L34.7,35.8 L34.7,30.8 L38,28.9 C39.5,28 40.7,25.9 40.7,24.2 L40.7,2.6 C40.6,0.9 39.4,0.2 37.9,1 Z" fill="url(#linearGradient-34)"></path>
                                    <g transform="translate(12.000000, 5.000000)" fill="#CED3F8">
                                        <polygon points="4.8 12.6 3.3 13.5 3.3 11.7 4.8 10.9"></polygon>
                                        <polygon points="7.8 10.8 6.4 11.7 6.4 10 7.8 9.1"></polygon>
                                        <polygon points="14 7.3 12.5 8.1 12.5 6.4 14 5.6"></polygon>
                                        <polygon points="20.1 3.7 18.6 4.6 18.6 2.9 20.1 2"></polygon>
                                        <polygon points="23.2 2 21.7 2.8 21.7 1.1 23.2 0.2"></polygon>
                                        <polygon points="1.7 17.9 0.2 18.8 0.2 17 1.7 16.2"></polygon>
                                        <polygon points="10.9 12.6 9.4 13.5 9.4 11.7 10.9 10.9"></polygon>
                                        <polygon points="14 10.8 12.5 11.7 12.5 10 14 9.1"></polygon>
                                        <polygon points="17 9 15.6 9.9 15.6 8.2 17 7.3"></polygon>
                                        <polygon points="20.1 7.3 18.6 8.1 18.6 6.4 20.1 5.6"></polygon>
                                        <polygon points="23.2 5.5 21.7 6.4 21.7 4.6 23.2 3.8"></polygon>
                                        <polygon points="26.2 3.7 24.8 4.6 24.8 2.9 26.2 2"></polygon>
                                        <polygon points="1.7 21.4 0.2 22.3 0.2 20.6 1.7 19.7"></polygon>
                                        <polygon points="7.8 17.9 6.4 18.8 6.4 17 7.8 16.2"></polygon>
                                        <polygon points="10.9 16.1 9.4 17 9.4 15.3 10.9 14.4"></polygon>
                                        <polygon points="14 14.4 12.5 15.2 12.5 13.5 14 12.6"></polygon>
                                        <polygon points="20.1 10.8 18.6 11.7 18.6 10 20.1 9.1"></polygon>
                                        <polygon points="26.2 7.3 24.8 8.1 24.8 6.4 26.2 5.6"></polygon>
                                        <polygon points="4.8 23.2 3.3 24.1 3.3 22.4 4.8 21.5"></polygon>
                                        <polygon points="10.9 19.7 9.4 20.5 9.4 18.8 10.9 18"></polygon>
                                        <polygon points="20.1 14.4 18.6 15.2 18.6 13.5 20.1 12.6"></polygon>
                                        <polygon points="23.2 12.6 21.7 13.4 21.7 11.7 23.2 10.9"></polygon>
                                        <polygon points="26.2 10.8 24.8 11.7 24.8 10 26.2 9.1"></polygon>
                                        <polygon points="1.7 28.5 0.2 29.4 0.2 27.7 1.7 26.8"></polygon>
                                        <polygon points="10.9 23.2 9.4 24.1 9.4 22.3 10.9 21.5"></polygon>
                                        <polygon points="14 21.4 12.5 22.3 12.5 20.6 14 19.7"></polygon>
                                        <polygon points="17 19.7 15.6 20.5 15.6 18.8 17 17.9"></polygon>
                                        <polygon points="1.7 32.1 0.2 32.9 0.2 31.2 1.7 30.3"></polygon>
                                        <polygon points="4.8 30.3 3.3 31.1 3.3 29.4 4.8 28.6"></polygon>
                                        <polygon points="10.9 26.7 9.4 27.6 9.4 25.9 10.9 25"></polygon>
                                        <polygon points="14 25 12.5 25.8 12.5 24.1 14 23.3"></polygon>
                                        <polygon points="20.1 21.4 18.6 22.3 18.6 20.6 20.1 19.7"></polygon>
                                        <polygon points="23.2 19.7 21.7 20.5 21.7 18.8 23.2 17.9"></polygon>
                                        <polygon points="26.2 17.9 24.8 18.7 24.8 17 26.2 16.2"></polygon>
                                        <polygon points="4.8 33.8 3.3 34.7 3.3 33 4.8 32.1"></polygon>
                                        <polygon points="7.8 32.1 6.4 32.9 6.4 31.2 7.8 30.3"></polygon>
                                        <polygon points="10.9 30.3 9.4 31.1 9.4 29.4 10.9 28.6"></polygon>
                                        <polygon points="20.1 25 18.6 25.8 18.6 24.1 20.1 23.3"></polygon>
                                        <polygon points="23.2 23.2 21.7 24.1 21.7 22.3 23.2 21.5"></polygon>
                                    </g>
                                </g>
                            </g>
                        </g>
                    </g>
                    <g id="3_pic_4" transform="translate(220.000000, 200.000000)">
                        <rect id="Rectangle" opacity="0.5" x="0" y="0" width="220" height="200"></rect>
                        <g transform="translate(16.000000, 25.000000)" fill-rule="nonzero" id="Group">
                            <g fill="#C8BDFF">
                                <path d="M93.9,113 C70.1,113 46.2,107.8 28,97.3 C10.4,87.1 0.7,73.5 0.7,59.1 C0.7,44.7 10.4,31.2 28,21 C64.3,0 123.4,0 159.7,21 C177.3,31.2 187,44.7 187,59.1 C187,73.5 177.3,87 159.7,97.2 L159.7,97.2 C141.5,107.7 117.7,113 93.9,113 Z M93.9,5.6 C70.1,5.6 46.3,10.8 28.2,21.3 C10.6,31.4 1,44.8 1,59.1 C1,73.4 10.6,86.8 28.2,96.9 C64.4,117.8 123.4,117.8 159.6,96.9 C177.1,86.8 186.8,73.4 186.8,59.1 C186.8,44.8 177.2,31.4 159.6,21.3 C141.4,10.8 117.6,5.6 93.9,5.6 Z" id="Shape"></path>
                                <path d="M1,106.3 C0.9,106.3 0.9,106.3 0.9,106.2 C0.9,106.1 0.9,106 1,106 L22.7,93.5 C22.8,93.5 22.9,93.5 22.9,93.6 C22.9,93.7 22.9,93.8 22.8,93.8 L1,106.3 C1.1,106.3 1.1,106.3 1,106.3 Z" id="Path"></path>
                                <path d="M153.5,18.3 C153.4,18.3 153.4,18.3 153.4,18.2 C153.4,18.1 153.4,18 153.5,18 L177.7,4.2 C177.8,4.2 177.9,4.2 177.9,4.3 C177.9,4.4 177.9,4.5 177.8,4.5 L153.5,18.3 C153.5,18.3 153.5,18.3 153.5,18.3 Z" id="Path"></path>
                                <path d="M34,18.2 C33.9,18.2 33.9,18.2 34,18.2 L3,0.3 C2.9,0.3 2.9,0.2 2.9,0.1 C2.9,0 3.1,0 3.1,0 L34,17.9 C34.1,17.9 34.1,18 34.1,18.1 C34.1,18.1 34,18.2 34,18.2 Z" id="Path"></path>
                                <path d="M200.5,114.3 C200.5,114.3 200.4,114.3 200.5,114.3 L164.9,93.8 C164.8,93.8 164.8,93.7 164.8,93.6 C164.8,93.5 165,93.5 165,93.5 L200.5,114 C200.6,114 200.6,114.1 200.6,114.2 C200.6,114.3 200.5,114.3 200.5,114.3 Z" id="Path"></path>
                                <path d="M167.4,95 C166,95.8 163.8,95.8 162.5,95 C161.1,94.2 161.1,92.9 162.5,92.2 C163.9,91.4 166.1,91.4 167.4,92.2 C168.8,93 168.8,94.2 167.4,95 Z" id="Path"></path>
                                <path d="M155.9,19.6 C154.5,20.4 152.3,20.4 151,19.6 C149.6,18.8 149.6,17.5 151,16.8 C152.4,16 154.6,16 155.9,16.8 C157.3,17.5 157.3,18.8 155.9,19.6 Z" id="Path"></path>
                                <path d="M25.2,95.1 C23.8,95.9 21.6,95.9 20.3,95.1 C18.9,94.3 18.9,93 20.3,92.3 C21.7,91.5 23.9,91.5 25.2,92.3 C26.5,93 26.5,94.3 25.2,95.1 Z" id="Path"></path>
                                <path d="M36.4,19.4 C35,20.2 32.8,20.2 31.5,19.4 C30.1,18.6 30.1,17.3 31.5,16.6 C32.9,15.8 35.1,15.8 36.4,16.6 C37.8,17.4 37.8,18.6 36.4,19.4 Z" id="Path"></path>
                            </g>
                            <g transform="translate(84.000000, 56.000000)">
                                <path d="M7.4,28.9 C2.6,26.1 0.2,22.5 0.2,18.9 L0.2,14.3 C0.2,17.9 2.6,21.5 7.4,24.3 C16.9,29.8 32.2,29.8 41.7,24.3 C46.4,21.6 48.7,18 48.7,14.4 L48.7,19 C48.7,22.6 46.3,26.1 41.7,28.9 C32.3,34.4 16.9,34.4 7.4,28.9 Z" id="Path" fill="url(#linearGradient-35)"></path>
                                <path d="M7.4,33.5 C2.6,30.7 0.2,27.1 0.2,23.5 L0.2,18.9 C0.2,22.5 2.6,26.1 7.4,28.9 C16.9,34.4 32.2,34.4 41.7,28.9 C46.4,26.2 48.7,22.6 48.7,19 L48.7,23.6 C48.7,27.2 46.3,30.7 41.7,33.5 C32.3,39 16.9,39 7.4,33.5 Z" id="Path" fill="url(#linearGradient-36)"></path>
                                <path d="M7.4,38.1 C2.6,35.3 0.2,31.7 0.2,28.1 L0.2,23.5 C0.2,27.1 2.6,30.7 7.4,33.5 C16.9,39 32.2,39 41.7,33.5 C46.4,30.8 48.7,27.2 48.7,23.6 L48.7,28.2 C48.7,31.8 46.3,35.3 41.7,38.1 C32.3,43.6 16.9,43.6 7.4,38.1 Z" id="Path" fill="url(#linearGradient-37)"></path>
                                <path d="M7.5,24.2 C-2,18.7 -2,9.8 7.4,4.3 C16.8,-1.2 32.2,-1.2 41.7,4.3 C51.2,9.8 51.2,18.7 41.8,24.2 C32.3,29.7 17,29.7 7.5,24.2 Z" id="Path" fill="#EEF0F4"></path>
                                <path d="M26.4,11.7 C28.2,12.7 31,12.7 32.7,11.7 C34.5,10.7 34.5,9.1 32.7,8 C30.9,7 28.1,7 26.4,8 C24.6,9.1 24.6,10.7 26.4,11.7 Z M28.5,15.5 C29.7,15.6 30.9,15.6 32.1,15.4 L31.6,14.1 C30.7,14.2 29.8,14.2 28.8,14.2 C24.4,13.8 21.4,11.5 22,9 L19.8,8.8 C19,12.1 22.9,15.1 28.5,15.5 Z M17.6,15.1 C20.1,17 23.7,18.3 27.8,18.6 C29.6,18.7 31.4,18.7 33.2,18.5 L32.7,17.2 C31.2,17.4 29.6,17.4 28.1,17.3 C24.6,17 21.5,16 19.4,14.3 C17.3,12.7 16.4,10.6 16.9,8.6 L14.7,8.4 C14,10.8 15.1,13.1 17.6,15.1 Z M27.1,21.6 C29.5,21.8 32,21.8 34.3,21.5 L33.8,20.2 C31.7,20.5 29.5,20.5 27.3,20.3 C17.2,19.5 10.1,14 11.5,8.2 L9.3,8 C7.7,14.5 15.7,20.6 27.1,21.6 Z" id="Shape" fill="#CED2F4"></path>
                            </g>
                            <g transform="translate(32.000000, 26.000000)">
                                <g id="Path">
                                    <path d="M7.1,28.2 C2.5,25.5 0.2,22 0.2,18.5 L0.2,14 C0.2,17.5 2.5,21 7.1,23.7 C16.3,29 31.1,29 40.3,23.7 C44.8,21.1 47.1,17.6 47.1,14.2 L47.1,18.7 C47.1,22.2 44.8,25.6 40.3,28.2 C31.2,33.6 16.3,33.6 7.1,28.2 Z" fill="url(#linearGradient-38)"></path>
                                    <path d="M7.1,32.7 C2.5,30 0.2,26.5 0.2,23 L0.2,18.5 C0.2,22 2.5,25.5 7.1,28.2 C16.3,33.5 31.1,33.5 40.3,28.2 C44.8,25.6 47.1,22.1 47.1,18.7 L47.1,23.2 C47.1,26.7 44.8,30.1 40.3,32.7 C31.2,38 16.3,38 7.1,32.7 Z" fill="url(#linearGradient-39)"></path>
                                    <path d="M7.1,37.2 C2.5,34.5 0.2,31 0.2,27.5 L0.2,23 C0.2,26.5 2.5,30 7.1,32.7 C16.3,38 31.1,38 40.3,32.7 C44.8,30.1 47.1,26.6 47.1,23.2 L47.1,27.7 C47.1,31.2 44.8,34.6 40.3,37.2 C31.2,42.5 16.3,42.5 7.1,37.2 Z" fill="url(#linearGradient-40)"></path>
                                    <path d="M7.1,23.8 C-2,18.5 -2.1,9.9 7,4.6 C16.1,-0.7 31,-0.7 40.2,4.6 C49.4,9.9 49.4,18.5 40.3,23.8 C31.2,29.1 16.3,29.1 7.1,23.8 Z" fill="#EEF0F4"></path>
                                </g>
                                <path d="M26.3,11.8 C24.8,11 22.5,11 21,11.8 C19.5,12.6 19.5,14 21,14.8 C22.5,15.6 24.8,15.6 26.3,14.8 C27.8,14 27.8,12.7 26.3,11.8 Z M30.6,9.4 C25.1,6.2 17.2,6.3 13,6.3 L12.3,6.3 L11.4,6.8 L11.4,7.2 C11.4,9.7 11.3,14.2 16.8,17.4 C22.3,20.6 30.2,20.5 34.4,20.5 L35.1,20.5 L36,20 L36,19.6 C36,17.1 36.1,12.6 30.6,9.4 Z M34.1,19.4 C30.1,19.4 22.9,19.4 18.1,16.6 C13.3,13.8 13.2,9.7 13.2,7.3 C17.2,7.3 24.4,7.3 29.2,10.1 C34.1,13 34.1,17.1 34.1,19.4 Z M12.9,18.8 L14.2,19.6 L16.2,18.5 L14.9,17.7 L12.9,18.8 Z M7.9,12.8 L7.9,13.9 L10.7,13.9 L10.7,12.8 L7.9,12.8 Z M22.6,20.8 L22.6,22.4 L24.5,22.4 L24.5,20.8 L22.6,20.8 Z M34.5,7.9 L33.2,7.1 L31.2,8.2 L32.5,9 L34.5,7.9 Z M24.6,4.3 L22.7,4.3 L22.7,5.9 L24.6,5.9 L24.6,4.3 Z M36.6,12.7 L36.6,13.8 L39.4,13.8 L39.4,12.7 L36.6,12.7 Z" id="Shape" fill="#BBC0E6"></path>
                            </g>
                            <g transform="translate(96.000000, 11.000000)">
                                <path d="M6.8,25.6 C2.7,23.2 0.6,20.1 0.6,16.9 L0.6,12.9 C0.6,16 2.7,19.2 6.8,21.6 C15,26.3 28.3,26.3 36.5,21.6 C40.6,19.2 42.6,16.2 42.6,13.1 L42.6,17.1 C42.6,20.2 40.6,23.3 36.5,25.6 C28.3,30.3 15.1,30.3 6.8,25.6 Z" id="Path" fill="url(#linearGradient-41)"></path>
                                <path d="M6.8,29.6 C2.7,27.2 0.6,24.1 0.6,20.9 L0.6,16.9 C0.6,20 2.7,23.2 6.8,25.6 C15,30.3 28.3,30.3 36.5,25.6 C40.6,23.2 42.6,20.2 42.6,17.1 L42.6,21.1 C42.6,24.2 40.6,27.3 36.5,29.6 C28.3,34.3 15.1,34.3 6.8,29.6 Z" id="Path" fill="url(#linearGradient-42)"></path>
                                <path d="M6.8,33.6 C2.7,31.2 0.6,28.1 0.6,24.9 L0.6,20.9 C0.6,24 2.7,27.2 6.8,29.6 C15,34.3 28.3,34.3 36.5,29.6 C40.6,27.2 42.6,24.2 42.6,21.1 L42.6,25.1 C42.6,28.2 40.6,31.3 36.5,33.6 C28.3,38.3 15.1,38.3 6.8,33.6 Z" id="Path" fill="url(#linearGradient-43)"></path>
                                <path d="M6.8,21.6 C-1.4,16.9 -1.5,9.2 6.7,4.4 C14.9,-0.3 28.2,-0.3 36.4,4.4 C44.6,9.1 44.7,16.8 36.5,21.6 C28.4,26.3 15.1,26.3 6.8,21.6 Z" id="Path" fill="#EEF0F4"></path>
                                <path d="M30.3,11.6 C28.9,10.8 28.6,9.7 28.6,8.3 C26.4,8.3 24.5,8.2 22.9,7.3 C21.5,6.5 21.2,5.4 21.2,4 L13.1,8.7 C8.5,11.4 8.8,16.5 10.6,18.6 C14.3,19.6 23.1,19.9 27.8,17.2 L35.9,12.5 C33.8,12.6 31.8,12.5 30.3,11.6 Z M26.7,16.6 C22.7,18.9 15.2,18.7 11.9,18 L27.1,9.2 C27.2,10.3 27.7,11.4 29.2,12.2 C30.2,12.8 31.3,13.1 32.5,13.3 L26.7,16.6 Z" id="Shape" fill="#CED2F4"></path>
                            </g>
                        </g>
                    </g>
                </g>
            </g>
        </g>
    </g>
</svg>