<?xml version="1.0" encoding="UTF-8"?>
<svg width="120px" height="121px" viewBox="0 0 120 121" version="1.1" xmlns="http://www.w3.org/2000/svg" xmlns:xlink="http://www.w3.org/1999/xlink">
    <!-- Generator: Sketch 53.2 (72643) - https://sketchapp.com -->
    <title>4_ico_2</title>
    <desc>Created with Sketch.</desc>
    <g id="Page-1" stroke="none" stroke-width="1" fill="none" fill-rule="evenodd">
        <g id="TRS_pc_960_tight" transform="translate(-530.000000, -2489.000000)">
            <g id="4" transform="translate(0.000000, 2410.000000)">
                <g id="Group" transform="translate(500.000000, 80.000000)">
                    <g id="34ico_2" transform="translate(30.000000, 0.000000)">
                        <g id="Group-25" transform="translate(10.000000, 10.000000)">
                            <polygon id="Fill-1" fill="#E2E3F5" points="35.9375 29.6875 64.0625 29.6875 64.0625 1.5625 35.9375 1.5625"></polygon>
                            <polygon id="Fill-2" fill="#E8E6E4" points="70.3125 64.0625 98.4375 64.0625 98.4375 35.9375 70.3125 35.9375"></polygon>
                            <polygon id="Fill-3" fill="#C8CBE9" points="0 31.25 31.25 31.25 31.25 0 0 0"></polygon>
                            <polygon id="Fill-4" fill="#E2E3F5" points="35.9375 64.0625 64.0625 64.0625 64.0625 35.9375 35.9375 35.9375"></polygon>
                            <path d="M29.6875,50 C29.6875,57.7671875 23.3921875,64.0625 15.625,64.0625 C7.8578125,64.0625 1.5625,57.7671875 1.5625,50 C1.5625,42.2328125 7.8578125,35.9375 15.625,35.9375 C23.3921875,35.9375 29.6875,42.2328125 29.6875,50" id="Fill-5" fill="#E8E6E4"></path>
                            <path d="M100,15.625 C100,24.2546875 93.0046875,31.25 84.375,31.25 C75.7453125,31.25 68.75,24.2546875 68.75,15.625 C68.75,6.9953125 75.7453125,0 84.375,0 C93.0046875,0 100,6.9953125 100,15.625" id="Fill-7" fill="#F19072"></path>
                            <path d="M65.625,84.375 C65.625,93.0046875 58.6296875,100 50,100 C41.3703125,100 34.375,93.0046875 34.375,84.375 C34.375,75.7453125 41.3703125,68.75 50,68.75 C58.6296875,68.75 65.625,75.7453125 65.625,84.375" id="Fill-9" fill="#6138AF"></path>
                            <polygon id="Fill-11" fill="#C8CBE9" points="68.75 100 100 100 100 68.75 68.75 68.75"></polygon>
                            <polygon id="Fill-13" fill="#F19072" points="1.5625 98.4375 29.6875 98.4375 29.6875 70.3125 1.5625 70.3125"></polygon>
                            <path d="M3.125,96.875 L28.125,96.875 L28.125,71.875 L3.125,71.875 L3.125,96.875 Z M0,100 L31.25,100 L31.25,68.75 L0,68.75 L0,100 Z" id="Fill-14" fill="#F19072"></path>
                            <polygon id="Fill-15" fill="#F19072" points="1.5625 85.9375 29.6875 85.9375 29.6875 82.8125 1.5625 82.8125"></polygon>
                            <polygon id="Fill-16" fill="#6138AF" points="59.375 31.25 34.375 31.25 34.375 0 65.625 0 65.625 25 62.5 25 62.5 3.125 37.5 3.125 37.5 28.125 59.375 28.125"></polygon>
                            <polygon id="Fill-17" fill="#6138AF" points="62.5 31.25 65.625 31.25 65.625 28.125 62.5 28.125"></polygon>
                            <polygon id="Fill-18" fill="#6138AF" points="93.75 65.625 68.75 65.625 68.75 34.375 100 34.375 100 59.375 96.875 59.375 96.875 37.5 71.875 37.5 71.875 62.5 93.75 62.5"></polygon>
                            <polygon id="Fill-19" fill="#6138AF" points="96.875 65.625 100 65.625 100 62.5 96.875 62.5"></polygon>
                            <polygon id="Fill-20" fill="#6138AF" points="65.625 65.625 40.625 65.625 40.625 62.5 62.5 62.5 62.5 37.5 37.5 37.5 37.5 59.375 34.375 59.375 34.375 34.375 65.625 34.375"></polygon>
                            <polygon id="Fill-21" fill="#6138AF" points="34.375 65.625 37.5 65.625 37.5 62.5 34.375 62.5"></polygon>
                            <polygon id="Fill-22" fill="#6138AF" points="31.25 100 0 100 0 75 3.125 75 3.125 96.875 28.125 96.875 28.125 71.875 6.25 71.875 6.25 68.75 31.25 68.75"></polygon>
                            <polygon id="Fill-23" fill="#6138AF" points="0 71.875 3.125 71.875 3.125 68.75 0 68.75"></polygon>
                        </g>
                    </g>
                </g>
            </g>
        </g>
    </g>
</svg>