<?xml version="1.0" encoding="UTF-8"?>
<svg width="120px" height="121px" viewBox="0 0 120 121" version="1.1" xmlns="http://www.w3.org/2000/svg" xmlns:xlink="http://www.w3.org/1999/xlink">
    <!-- Generator: Sketch 53.2 (72643) - https://sketchapp.com -->
    <title>4_ico_4</title>
    <desc>Created with Sketch.</desc>
    <g id="Page-1" stroke="none" stroke-width="1" fill="none" fill-rule="evenodd">
        <g id="TRS_pc_960_tight" transform="translate(-1050.000000, -2489.000000)">
            <g id="4" transform="translate(0.000000, 2410.000000)">
                <g id="Group" transform="translate(1020.000000, 80.000000)">
                    <g id="4_ico_4" transform="translate(30.000000, 0.000000)">
                        <g id="Group-67" transform="translate(10.000000, 10.000000)">
                            <path d="M18.75,29.6875 C18.75,34.8640625 14.5515625,39.0625 9.375,39.0625 C4.1984375,39.0625 0,34.8640625 0,29.6875 C0,24.5109375 4.1984375,20.3125 9.375,20.3125 C14.5515625,20.3125 18.75,24.5109375 18.75,29.6875" id="Fill-1" fill="#F19072"></path>
                            <path d="M59.375,90.625 C59.375,95.8015625 55.1765625,100 50,100 C44.8234375,100 40.625,95.8015625 40.625,90.625 C40.625,85.4484375 44.8234375,81.25 50,81.25 C55.1765625,81.25 59.375,85.4484375 59.375,90.625" id="Fill-3" fill="#F19072"></path>
                            <path d="M100,70.3125 C100,75.4890625 95.8015625,79.6875 90.625,79.6875 C85.4484375,79.6875 81.25,75.4890625 81.25,70.3125 C81.25,65.1359375 85.4484375,60.9375 90.625,60.9375 C95.8015625,60.9375 100,65.1359375 100,70.3125" id="Fill-5" fill="#FF7552"></path>
                            <path d="M59.375,50 C59.375,55.1765625 55.1765625,59.375 50,59.375 C44.8234375,59.375 40.625,55.1765625 40.625,50 C40.625,44.8234375 44.8234375,40.625 50,40.625 C55.1765625,40.625 59.375,44.8234375 59.375,50" id="Fill-7" fill="#E2E3F5"></path>
                            <path d="M39.0625,70.3125 C39.0625,75.4890625 34.8640625,79.6875 29.6875,79.6875 C24.5109375,79.6875 20.3125,75.4890625 20.3125,70.3125 C20.3125,65.1359375 24.5109375,60.9375 29.6875,60.9375 C34.8640625,60.9375 39.0625,65.1359375 39.0625,70.3125" id="Fill-9" fill="#E2E3F5"></path>
                            <path d="M39.0625,9.375 C39.0625,14.5515625 34.8640625,18.75 29.6875,18.75 C24.5109375,18.75 20.3125,14.5515625 20.3125,9.375 C20.3125,4.1984375 24.5109375,0 29.6875,0 C34.8640625,0 39.0625,4.1984375 39.0625,9.375" id="Fill-11" fill="#E2E3F5"></path>
                            <path d="M100,29.6875 C100,34.8640625 95.8015625,39.0625 90.625,39.0625 C85.4484375,39.0625 81.25,34.8640625 81.25,29.6875 C81.25,24.5109375 85.4484375,20.3125 90.625,20.3125 C95.8015625,20.3125 100,24.5109375 100,29.6875" id="Fill-13" fill="#E2E3F5"></path>
                            <path d="M79.6875,9.375 C79.6875,14.5515625 75.4890625,18.75 70.3125,18.75 C65.1359375,18.75 60.9375,14.5515625 60.9375,9.375 C60.9375,4.1984375 65.1359375,0 70.3125,0 C75.4890625,0 79.6875,4.1984375 79.6875,9.375" id="Fill-15" fill="#F19072"></path>
                            <path d="M9.375,12.4992187 C7.6515625,12.4992187 6.25,11.0976562 6.25,9.37421875 C6.25,7.65078125 7.6515625,6.24921875 9.375,6.24921875 C11.0984375,6.24921875 12.5,7.65078125 12.5,9.37421875 C12.5,11.0976562 11.0984375,12.4992187 9.375,12.4992187 L9.375,12.4992187 Z" id="Fill-17" fill="#6138AF"></path>
                            <path d="M29.6875,12.4992187 C27.9640625,12.4992187 26.5625,11.0976562 26.5625,9.37421875 C26.5625,7.65078125 27.9640625,6.24921875 29.6875,6.24921875 C31.4109375,6.24921875 32.8125,7.65078125 32.8125,9.37421875 C32.8125,11.0976562 31.4109375,12.4992187 29.6875,12.4992187 L29.6875,12.4992187 Z" id="Fill-19" fill="#4E2A84"></path>
                            <path d="M50,12.4992187 C48.2765625,12.4992187 46.875,11.0976562 46.875,9.37421875 C46.875,7.65078125 48.2765625,6.24921875 50,6.24921875 C51.7234375,6.24921875 53.125,7.65078125 53.125,9.37421875 C53.125,11.0976562 51.7234375,12.4992187 50,12.4992187 L50,12.4992187 Z" id="Fill-21" fill="#6138AF"></path>
                            <path d="M70.3125,12.4992187 C68.5890625,12.4992187 67.1875,11.0976562 67.1875,9.37421875 C67.1875,7.65078125 68.5890625,6.24921875 70.3125,6.24921875 C72.0359375,6.24921875 73.4375,7.65078125 73.4375,9.37421875 C73.4375,11.0976562 72.0359375,12.4992187 70.3125,12.4992187 L70.3125,12.4992187 Z" id="Fill-23" fill="#4E2A84"></path>
                            <path d="M90.625,12.4992187 C88.9015625,12.4992187 87.5,11.0976562 87.5,9.37421875 C87.5,7.65078125 88.9015625,6.24921875 90.625,6.24921875 C92.3484375,6.24921875 93.75,7.65078125 93.75,9.37421875 C93.75,11.0976562 92.3484375,12.4992187 90.625,12.4992187 L90.625,12.4992187 Z" id="Fill-25" fill="#6138AF"></path>
                            <path d="M9.375,32.8117187 C7.6515625,32.8117187 6.25,31.4101562 6.25,29.6867187 C6.25,27.9632813 7.6515625,26.5617187 9.375,26.5617187 C11.0984375,26.5617187 12.5,27.9632813 12.5,29.6867187 C12.5,31.4101562 11.0984375,32.8117187 9.375,32.8117187 L9.375,32.8117187 Z" id="Fill-27" fill="#4E2A84"></path>
                            <path d="M29.6875,32.8117187 C27.9640625,32.8117187 26.5625,31.4101562 26.5625,29.6867187 C26.5625,27.9632813 27.9640625,26.5617187 29.6875,26.5617187 C31.4109375,26.5617187 32.8125,27.9632813 32.8125,29.6867187 C32.8125,31.4101562 31.4109375,32.8117187 29.6875,32.8117187 L29.6875,32.8117187 Z" id="Fill-29" fill="#6138AF"></path>
                            <path d="M50,32.8117187 C48.2765625,32.8117187 46.875,31.4101562 46.875,29.6867187 C46.875,27.9632813 48.2765625,26.5617187 50,26.5617187 C51.7234375,26.5617187 53.125,27.9632813 53.125,29.6867187 C53.125,31.4101562 51.7234375,32.8117187 50,32.8117187 L50,32.8117187 Z" id="Fill-31" fill="#6138AF"></path>
                            <path d="M70.3125,32.8117187 C68.5890625,32.8117187 67.1875,31.4101562 67.1875,29.6867187 C67.1875,27.9632813 68.5890625,26.5617187 70.3125,26.5617187 C72.0359375,26.5617187 73.4375,27.9632813 73.4375,29.6867187 C73.4375,31.4101562 72.0359375,32.8117187 70.3125,32.8117187 L70.3125,32.8117187 Z" id="Fill-33" fill="#6138AF"></path>
                            <path d="M90.625,32.8117187 C88.9015625,32.8117187 87.5,31.4101562 87.5,29.6867187 C87.5,27.9632813 88.9015625,26.5617187 90.625,26.5617187 C92.3484375,26.5617187 93.75,27.9632813 93.75,29.6867187 C93.75,31.4101562 92.3484375,32.8117187 90.625,32.8117187 L90.625,32.8117187 Z" id="Fill-35" fill="#4E2A84"></path>
                            <path d="M9.375,53.1242187 C7.6515625,53.1242187 6.25,51.7226562 6.25,49.9992187 C6.25,48.2757813 7.6515625,46.8742187 9.375,46.8742187 C11.0984375,46.8742187 12.5,48.2757813 12.5,49.9992187 C12.5,51.7226562 11.0984375,53.1242187 9.375,53.1242187 L9.375,53.1242187 Z" id="Fill-37" fill="#6138AF"></path>
                            <path d="M29.6875,53.1242187 C27.9640625,53.1242187 26.5625,51.7226562 26.5625,49.9992187 C26.5625,48.2757813 27.9640625,46.8742187 29.6875,46.8742187 C31.4109375,46.8742187 32.8125,48.2757813 32.8125,49.9992187 C32.8125,51.7226562 31.4109375,53.1242187 29.6875,53.1242187 L29.6875,53.1242187 Z" id="Fill-39" fill="#6138AF"></path>
                            <path d="M50,53.1242187 C48.2765625,53.1242187 46.875,51.7226562 46.875,49.9992187 C46.875,48.2757813 48.2765625,46.8742187 50,46.8742187 C51.7234375,46.8742187 53.125,48.2757813 53.125,49.9992187 C53.125,51.7226562 51.7234375,53.1242187 50,53.1242187 L50,53.1242187 Z" id="Fill-41" fill="#4E2A84"></path>
                            <path d="M70.3125,53.1242187 C68.5890625,53.1242187 67.1875,51.7226562 67.1875,49.9992187 C67.1875,48.2757813 68.5890625,46.8742187 70.3125,46.8742187 C72.0359375,46.8742187 73.4375,48.2757813 73.4375,49.9992187 C73.4375,51.7226562 72.0359375,53.1242187 70.3125,53.1242187 L70.3125,53.1242187 Z" id="Fill-43" fill="#6138AF"></path>
                            <path d="M90.625,53.1242187 C88.9015625,53.1242187 87.5,51.7226562 87.5,49.9992187 C87.5,48.2757813 88.9015625,46.8742187 90.625,46.8742187 C92.3484375,46.8742187 93.75,48.2757813 93.75,49.9992187 C93.75,51.7226562 92.3484375,53.1242187 90.625,53.1242187 L90.625,53.1242187 Z" id="Fill-45" fill="#6138AF"></path>
                            <path d="M9.375,73.4367187 C7.6515625,73.4367187 6.25,72.0351562 6.25,70.3117187 C6.25,68.5882812 7.6515625,67.1867187 9.375,67.1867187 C11.0984375,67.1867187 12.5,68.5882812 12.5,70.3117187 C12.5,72.0351562 11.0984375,73.4367187 9.375,73.4367187 L9.375,73.4367187 Z" id="Fill-47" fill="#6138AF"></path>
                            <path d="M29.6875,73.4367187 C27.9640625,73.4367187 26.5625,72.0351562 26.5625,70.3117187 C26.5625,68.5882812 27.9640625,67.1867187 29.6875,67.1867187 C31.4109375,67.1867187 32.8125,68.5882812 32.8125,70.3117187 C32.8125,72.0351562 31.4109375,73.4367187 29.6875,73.4367187 L29.6875,73.4367187 Z" id="Fill-49" fill="#4E2A84"></path>
                            <path d="M50,73.4367187 C48.2765625,73.4367187 46.875,72.0351562 46.875,70.3117187 C46.875,68.5882812 48.2765625,67.1867187 50,67.1867187 C51.7234375,67.1867187 53.125,68.5882812 53.125,70.3117187 C53.125,72.0351562 51.7234375,73.4367187 50,73.4367187 L50,73.4367187 Z" id="Fill-51" fill="#6138AF"></path>
                            <path d="M70.3125,73.4367187 C68.5890625,73.4367187 67.1875,72.0351562 67.1875,70.3117187 C67.1875,68.5882812 68.5890625,67.1867187 70.3125,67.1867187 C72.0359375,67.1867187 73.4375,68.5882812 73.4375,70.3117187 C73.4375,72.0351562 72.0359375,73.4367187 70.3125,73.4367187 L70.3125,73.4367187 Z" id="Fill-53" fill="#6138AF"></path>
                            <path d="M90.625,73.4367187 C88.9015625,73.4367187 87.5,72.0351562 87.5,70.3117187 C87.5,68.5882812 88.9015625,67.1867187 90.625,67.1867187 C92.3484375,67.1867187 93.75,68.5882812 93.75,70.3117187 C93.75,72.0351562 92.3484375,73.4367187 90.625,73.4367187 L90.625,73.4367187 Z" id="Fill-55" fill="#4E2A84"></path>
                            <path d="M9.375,93.7492187 C7.6515625,93.7492187 6.25,92.3476562 6.25,90.6242187 C6.25,88.9007812 7.6515625,87.4992187 9.375,87.4992187 C11.0984375,87.4992187 12.5,88.9007812 12.5,90.6242187 C12.5,92.3476562 11.0984375,93.7492187 9.375,93.7492187 L9.375,93.7492187 Z" id="Fill-57" fill="#6138AF"></path>
                            <path d="M29.6875,93.7492187 C27.9640625,93.7492187 26.5625,92.3476562 26.5625,90.6242187 C26.5625,88.9007812 27.9640625,87.4992187 29.6875,87.4992187 C31.4109375,87.4992187 32.8125,88.9007812 32.8125,90.6242187 C32.8125,92.3476562 31.4109375,93.7492187 29.6875,93.7492187 L29.6875,93.7492187 Z" id="Fill-59" fill="#6138AF"></path>
                            <path d="M50,93.7492187 C48.2765625,93.7492187 46.875,92.3476562 46.875,90.6242187 C46.875,88.9007812 48.2765625,87.4992187 50,87.4992187 C51.7234375,87.4992187 53.125,88.9007812 53.125,90.6242187 C53.125,92.3476562 51.7234375,93.7492187 50,93.7492187 L50,93.7492187 Z" id="Fill-61" fill="#4E2A84"></path>
                            <path d="M70.3125,93.7492187 C68.5890625,93.7492187 67.1875,92.3476562 67.1875,90.6242187 C67.1875,88.9007812 68.5890625,87.4992187 70.3125,87.4992187 C72.0359375,87.4992187 73.4375,88.9007812 73.4375,90.6242187 C73.4375,92.3476562 72.0359375,93.7492187 70.3125,93.7492187 L70.3125,93.7492187 Z" id="Fill-63" fill="#6138AF"></path>
                            <path d="M90.625,93.7492187 C88.9015625,93.7492187 87.5,92.3476562 87.5,90.6242187 C87.5,88.9007812 88.9015625,87.4992187 90.625,87.4992187 C92.3484375,87.4992187 93.75,88.9007812 93.75,90.6242187 C93.75,92.3476562 92.3484375,93.7492187 90.625,93.7492187 L90.625,93.7492187 Z" id="Fill-65" fill="#6138AF"></path>
                        </g>
                    </g>
                </g>
            </g>
        </g>
    </g>
</svg>