<?xml version="1.0" encoding="UTF-8"?>
<svg width="120px" height="121px" viewBox="0 0 120 121" version="1.1" xmlns="http://www.w3.org/2000/svg" xmlns:xlink="http://www.w3.org/1999/xlink">
    <!-- Generator: Sketch 53.2 (72643) - https://sketchapp.com -->
    <title>4_ico_1</title>
    <desc>Created with Sketch.</desc>
    <defs>
        <polygon id="path-1" points="0 110 110 110 110 0 0 0"></polygon>
    </defs>
    <g id="Page-1" stroke="none" stroke-width="1" fill="none" fill-rule="evenodd">
        <g id="TRS_pc_960_tight" transform="translate(-270.000000, -2489.000000)">
            <g id="4" transform="translate(0.000000, 2410.000000)">
                <g id="Group" transform="translate(240.000000, 80.000000)">
                    <g id="4_ico_1" transform="translate(30.000000, 0.000000)">
                        <g id="Group-39" transform="translate(5.000000, 5.000000)">
                            <path d="M97.96875,22.34375 C97.96875,28.0379688 93.3504688,32.65625 87.65625,32.65625 C81.9620312,32.65625 77.34375,28.0379688 77.34375,22.34375 C77.34375,16.6495312 81.9620312,12.03125 87.65625,12.03125 C93.3504688,12.03125 97.96875,16.6495312 97.96875,22.34375" id="Fill-1" fill="#F19072"></path>
                            <path d="M32.65625,22.34375 C32.65625,28.0379688 28.0379687,32.65625 22.34375,32.65625 C16.6495312,32.65625 12.03125,28.0379688 12.03125,22.34375 C12.03125,16.6495312 16.6495312,12.03125 22.34375,12.03125 C28.0379687,12.03125 32.65625,16.6495312 32.65625,22.34375" id="Fill-3" fill="#F19072"></path>
                            <path d="M97.96875,87.65625 C97.96875,93.3504688 93.3504688,97.96875 87.65625,97.96875 C81.9620312,97.96875 77.34375,93.3504688 77.34375,87.65625 C77.34375,81.9620312 81.9620312,77.34375 87.65625,77.34375 C93.3504688,77.34375 97.96875,81.9620312 97.96875,87.65625" id="Fill-5" fill="#F19072"></path>
                            <path d="M32.65625,87.65625 C32.65625,93.3504688 28.0379687,97.96875 22.34375,97.96875 C16.6495312,97.96875 12.03125,93.3504688 12.03125,87.65625 C12.03125,81.9620312 16.6495312,77.34375 22.34375,77.34375 C28.0379687,77.34375 32.65625,81.9620312 32.65625,87.65625" id="Fill-7" fill="#F19072"></path>
                            <path d="M65.3125,10.3125 C65.3125,16.0067188 60.6942188,20.625 55,20.625 C49.3057812,20.625 44.6875,16.0067188 44.6875,10.3125 C44.6875,4.61828125 49.3057812,0 55,0 C60.6942188,0 65.3125,4.61828125 65.3125,10.3125" id="Fill-9" fill="#F19072"></path>
                            <path d="M65.3125,99.6875 C65.3125,105.381719 60.6942188,110 55,110 C49.3057812,110 44.6875,105.381719 44.6875,99.6875 C44.6875,93.9932812 49.3057812,89.375 55,89.375 C60.6942188,89.375 65.3125,93.9932812 65.3125,99.6875" id="Fill-11" fill="#F19072"></path>
                            <path d="M20.625,55 C20.625,60.6942187 16.0067187,65.3125 10.3125,65.3125 C4.61828125,65.3125 0,60.6942187 0,55 C0,49.3057812 4.61828125,44.6875 10.3125,44.6875 C16.0067187,44.6875 20.625,49.3057812 20.625,55" id="Fill-13" fill="#F19072"></path>
                            <path d="M110,55 C110,60.6942187 105.381719,65.3125 99.6875,65.3125 C93.9932812,65.3125 89.375,60.6942187 89.375,55 C89.375,49.3057812 93.9932812,44.6875 99.6875,44.6875 C105.381719,44.6875 110,49.3057812 110,55" id="Fill-15" fill="#F19072"></path>
                            <path d="M29.6015156,41.2508594 C28.9294844,41.2508594 28.2935469,40.8572656 28.0168281,40.2007031 L20.7585469,23.0132031 C20.3924531,22.1383594 20.8015156,21.1294531 21.6746406,20.7599219 C22.5494844,20.3903906 23.5566719,20.8011719 23.9262031,21.6742969 L31.1844844,38.8617969 C31.5540156,39.7366406 31.1432344,40.7455469 30.2701094,41.1150781 C30.0518281,41.2078906 29.8249531,41.2508594 29.6015156,41.2508594" id="Fill-17" fill="#6138AF"></path>
                            <path d="M55,101.407109 C54.3296875,101.407109 53.6920312,101.013516 53.4153125,100.356953 L30.9185937,47.0757031 C30.5490625,46.2008594 30.9615625,45.1919531 31.8346875,44.8224219 C32.7095312,44.4546094 33.7184375,44.8636719 34.08625,45.7367969 L56.5829687,99.0180469 C56.9525,99.8928906 56.5417188,100.901797 55.6703125,101.271328 C55.4503125,101.364141 55.2251562,101.407109 55,101.407109" id="Fill-19" fill="#4E2A84"></path>
                            <mask id="mask-2" fill="white">
                                <use xlink:href="#path-1"></use>
                            </mask>
                            <g id="Clip-22"></g>
                            <polygon id="Fill-21" fill="#F1AB72" mask="url(#mask-2)" points="49.84375 49.84375 53.28125 49.84375 53.28125 46.40625 49.84375 46.40625"></polygon>
                            <polygon id="Fill-23" fill="#F1AB72" mask="url(#mask-2)" points="56.71875 49.84375 60.15625 49.84375 60.15625 46.40625 56.71875 46.40625"></polygon>
                            <polygon id="Fill-24" fill="#F1AB72" mask="url(#mask-2)" points="60.15625 56.71875 63.59375 56.71875 63.59375 53.28125 60.15625 53.28125"></polygon>
                            <polygon id="Fill-25" fill="#F1AB72" mask="url(#mask-2)" points="53.28125 56.71875 56.71875 56.71875 56.71875 53.28125 53.28125 53.28125"></polygon>
                            <polygon id="Fill-26" fill="#F1AB72" mask="url(#mask-2)" points="46.40625 56.71875 49.84375 56.71875 49.84375 53.28125 46.40625 53.28125"></polygon>
                            <polygon id="Fill-27" fill="#F1AB72" mask="url(#mask-2)" points="56.71875 63.59375 60.15625 63.59375 60.15625 60.15625 56.71875 60.15625"></polygon>
                            <polygon id="Fill-28" fill="#F1AB72" mask="url(#mask-2)" points="49.84375 63.59375 53.28125 63.59375 53.28125 60.15625 49.84375 60.15625"></polygon>
                            <path d="M87.6545313,89.3758594 C87.4310938,89.3758594 87.2059375,89.3328906 86.9859375,89.2400781 L9.6421875,56.5838281 C8.77078125,56.2142969 8.36,55.2053906 8.7278125,54.3305469 C9.0990625,53.4574219 10.1045313,53.0483594 10.9828125,53.4161719 L88.3265625,86.0724219 C89.1979688,86.4419531 89.60875,87.4508594 89.2392188,88.3257031 C88.9642188,88.9805469 88.3265625,89.3758594 87.6545313,89.3758594" id="Fill-29" fill="#6138AF" mask="url(#mask-2)"></path>
                            <path d="M22.34375,89.3758594 C21.6734375,89.3758594 21.0357813,88.9822656 20.7590625,88.3257031 C20.39125,87.4508594 20.8020312,86.4419531 21.6734375,86.0724219 L38.8609375,78.8158594 C39.7375,78.4446094 40.7464062,78.8571094 41.1142187,79.7302344 C41.48375,80.6050781 41.0729688,81.6139844 40.2015625,81.9835156 L23.0140625,89.2400781 C22.7940625,89.3328906 22.5671875,89.3758594 22.34375,89.3758594" id="Fill-30" fill="#6138AF" mask="url(#mask-2)"></path>
                            <path d="M46.40625,79.2161562 C45.7359375,79.2161562 45.0982812,78.8225625 44.8215625,78.166 C44.45375,77.2911563 44.8645312,76.28225 45.7359375,75.9127187 L99.0171875,53.416 C99.8920313,53.04475 100.902656,53.45725 101.270469,54.330375 C101.64,55.2052188 101.229219,56.214125 100.357813,56.5836562 L47.0765625,79.080375 C46.8565625,79.1731875 46.6296875,79.2161562 46.40625,79.2161562" id="Fill-31" fill="#4E2A84" mask="url(#mask-2)"></path>
                            <path d="M54.9982812,101.407109 C54.7748438,101.407109 54.5496875,101.364141 54.3296875,101.271328 C53.4582812,100.901797 53.0475,99.8928906 53.4153125,99.0180469 L86.0715625,21.6742969 C86.4428125,20.8011719 87.4465625,20.3921094 88.3265625,20.7599219 C89.1979688,21.1294531 89.60875,22.1383594 89.2392188,23.0132031 L56.5829687,100.356953 C56.3079688,101.011797 55.6703125,101.407109 54.9982812,101.407109" id="Fill-32" fill="#6138AF" mask="url(#mask-2)"></path>
                            <path d="M70.46875,31.3202656 C69.7984375,31.3202656 69.1607812,30.9266719 68.8840625,30.2701094 C68.51625,29.3952656 68.9270312,28.3863594 69.7984375,28.0168281 L86.9859375,20.7602656 C87.8625,20.3907344 88.8714063,20.8015156 89.2392188,21.6746406 C89.60875,22.5494844 89.1979688,23.5583906 88.3265625,23.9279219 L71.1390625,31.1844844 C70.9190625,31.2772969 70.6921875,31.3202656 70.46875,31.3202656" id="Fill-33" fill="#6138AF" mask="url(#mask-2)"></path>
                            <path d="M10.3125,56.7196094 C9.6421875,56.7196094 9.00453125,56.3260156 8.7278125,55.6694531 C8.36,54.7946094 8.77078125,53.7857031 9.6421875,53.4161719 L62.9234375,30.9194531 C63.8,30.5499219 64.8071875,30.9607031 65.1767188,31.8338281 C65.54625,32.7086719 65.1354688,33.7175781 64.2640625,34.0871094 L10.9828125,56.5838281 C10.7628125,56.6766406 10.5359375,56.7196094 10.3125,56.7196094" id="Fill-34" fill="#4E2A84" mask="url(#mask-2)"></path>
                            <path d="M87.65625,89.3758594 C86.9859375,89.3758594 86.3482812,88.9822656 86.0715625,88.3257031 L78.815,71.1382031 C78.4471875,70.2633594 78.85625,69.2544531 79.7310937,68.8849219 C80.6042188,68.5153906 81.613125,68.9261719 81.9826562,69.7992969 L89.2392188,86.9867969 C89.60875,87.8616406 89.1979688,88.8705469 88.3265625,89.2400781 C88.1065625,89.3328906 87.8796875,89.3758594 87.65625,89.3758594" id="Fill-35" fill="#6138AF" mask="url(#mask-2)"></path>
                            <path d="M77.4980938,65.3133594 C76.8260625,65.3133594 76.1884063,64.9197656 75.9134063,64.2632031 L53.4149688,10.9819531 C53.0471563,10.1071094 53.4579375,9.09820312 54.3310625,8.72867187 C55.2041875,8.35914063 56.2148125,8.76992187 56.582625,9.64304688 L79.0810625,62.9242969 C79.448875,63.7991406 79.0380938,64.8080469 78.1649688,65.1775781 C77.9484063,65.2703906 77.7198125,65.3133594 77.4980938,65.3133594" id="Fill-36" fill="#4E2A84" mask="url(#mask-2)"></path>
                            <path d="M99.6857813,56.7196094 C99.4623438,56.7196094 99.2371875,56.6766406 99.0171875,56.5838281 L21.6734375,23.9275781 C20.8020313,23.5580469 20.39125,22.5491406 20.7590625,21.6742969 C21.1303125,20.8011719 22.1340625,20.3921094 23.0140625,20.7599219 L100.357813,53.4161719 C101.229219,53.7857031 101.64,54.7946094 101.270469,55.6694531 C100.995469,56.3242969 100.357813,56.7196094 99.6857813,56.7196094" id="Fill-37" fill="#6138AF" mask="url(#mask-2)"></path>
                            <path d="M22.3420313,89.3758594 C22.1185937,89.3758594 21.8934375,89.3328906 21.6734375,89.2400781 C20.8020312,88.8705469 20.39125,87.8616406 20.7590625,86.9867969 L53.4153125,9.64304688 C53.7865625,8.76992187 54.7903125,8.35914063 55.6703125,8.72867187 C56.5417187,9.09820312 56.9525,10.1071094 56.5829687,10.9819531 L23.9267188,88.3257031 C23.6517188,88.9805469 23.0140625,89.3758594 22.3420313,89.3758594" id="Fill-38" fill="#6138AF" mask="url(#mask-2)"></path>
                        </g>
                    </g>
                </g>
            </g>
        </g>
    </g>
</svg>