<?xml version="1.0" encoding="UTF-8"?>
<svg width="120px" height="121px" viewBox="0 0 120 121" version="1.1" xmlns="http://www.w3.org/2000/svg" xmlns:xlink="http://www.w3.org/1999/xlink">
    <!-- Generator: Sketch 53.2 (72643) - https://sketchapp.com -->
    <title>4_ico_3</title>
    <desc>Created with Sketch.</desc>
    <defs>
        <path d="M49.6875,54.3866649 L49.6875,56.5625001 C49.6875,57.7742188 53.6028125,60 60,60 C66.3971875,60 70.3125,57.7742188 70.3125,56.5625 L70.3125,54.3866649 C67.6634755,55.8250241 63.8188561,56.5625 60,56.5625 C56.1811439,56.5625 52.3365245,55.8250241 49.6875,54.3866649 Z M46.25,49.6875 C46.25,45.1740625 53.16625,42.8125 60,42.8125 C66.83375,42.8125 73.75,45.1740625 73.75,49.6875 L73.75,70.3125 C73.75,74.8259375 66.83375,77.1875 60,77.1875 C53.16625,77.1875 46.25,74.8259375 46.25,70.3125 L46.25,49.6875 Z M49.6875,61.2616649 L49.6875,63.4375001 C49.6875,64.6492187 53.6028125,66.875 60,66.875 C66.3971875,66.875 70.3125,64.6492187 70.3125,63.4375 L70.3125,61.2616649 C67.6634755,62.7000241 63.8188561,63.4375 60,63.4375 C56.1811439,63.4375 52.3365245,62.7000241 49.6875,61.2616649 Z M49.6875,68.1366649 L49.6875,70.3125 C49.6875,71.5242187 53.6028125,73.75 60,73.75 C66.3971875,73.75 70.3125,71.5242187 70.3125,70.3125 L70.3125,68.1366649 C67.6634755,69.5750241 63.8188561,70.3125 60,70.3125 C56.1811439,70.3125 52.3365245,69.5750241 49.6875,68.1366649 Z M45.9078006,18.5178251 C50.4512525,20.002077 55.2115283,22.2415943 59.9999969,25.1362158 C64.7884697,22.2415953 69.5487466,20.0020774 74.0921994,18.5178251 C70.1006081,12.2074894 65.2119377,8.4375 60,8.4375 C54.7880623,8.4375 49.8993919,12.2074894 45.9078006,18.5178251 Z M44.141639,21.5865039 C42.1981608,25.2902647 40.5258386,29.6416981 39.2075734,34.4631521 C42.2861415,33.8515743 45.510006,33.3734132 48.8521709,33.0421667 C51.4443222,30.9246683 54.0722898,28.9813831 56.7047996,27.2289145 C52.4040001,24.7566186 48.1568006,22.843828 44.141639,21.5865039 Z M71.1478291,33.0421667 C74.489994,33.3734132 77.7138585,33.8515743 80.7924266,34.4631521 C79.4741614,29.6416981 77.8018392,25.2902647 75.858361,21.5865039 C71.8431994,22.843828 67.5959999,24.7566186 63.2952004,27.2289145 C65.9277102,28.9813831 68.5556778,30.9246683 71.1478196,33.042159 Z M64.9353049,32.6043043 C63.2956298,31.4039211 61.6472228,30.2761221 60,29.22624 C58.3527772,30.2761221 56.7043702,31.4039211 55.0646951,32.6043043 C56.6884739,32.5352268 58.3344929,32.5 60,32.5 C61.6655071,32.5 63.3115261,32.5352268 64.9353049,32.6043043 Z M36.395012,69.8099754 C38.4414485,72.2631096 40.644298,74.6738293 42.9854063,77.0149375 C45.3271767,79.356708 47.7476737,81.5604086 50.2115447,83.6070145 C53.3907411,83.905575 56.66448,84.0625 60,84.0625 C63.33552,84.0625 66.6092589,83.905575 69.7884597,83.6070109 C72.2523263,81.5604086 74.6728233,79.356708 77.0145937,77.0149375 C79.355702,74.6738293 81.5585515,72.2631096 83.604988,69.8099754 C83.9048661,66.6240299 84.0625,63.3430451 84.0625,60 C84.0625,56.6569837 83.9048688,53.3760266 83.6049958,50.190107 C81.5585432,47.7369076 79.3557817,45.3262505 77.0149375,42.9854063 C74.6730283,40.643497 72.2523355,38.439674 69.7882417,36.3929654 C66.6091123,36.094418 63.3354453,35.9375 60,35.9375 C56.6645547,35.9375 53.3908877,36.094418 50.2117539,36.3929691 C47.7476645,38.439674 45.3269717,40.643497 42.9850625,42.9854063 C40.6442183,45.3262505 38.4414568,47.7369076 36.3950042,50.190107 C36.0951312,53.3760266 35.9375,56.6569837 35.9375,60 C35.9375,63.3430451 36.0951339,66.6240299 36.395012,69.8099754 Z M37.1564331,75.896814 C37.470238,77.8963692 37.8409384,79.8458035 38.2641909,81.7358091 C40.1539759,82.1590122 42.1031757,82.5296755 44.1024858,82.843457 C42.9066798,81.7465958 41.7231233,80.6132796 40.5550938,79.44525 C39.388659,78.2788153 38.2550726,77.0949535 37.1564331,75.896814 Z M82.8434737,44.1025923 C82.5296886,42.1032449 82.1590197,40.1540095 81.7358091,38.2641909 C79.8460012,37.8409827 77.8967771,37.4703155 75.8974415,37.1565316 C77.0933979,38.2535033 78.2770943,39.3869381 79.44525,40.5550938 C80.6115301,41.7211782 81.7449706,42.9047295 82.8434737,44.1025923 Z M48.8519257,86.957809 C45.5098483,86.6265634 42.2860661,86.1484107 39.2075734,85.5368479 C40.525886,90.3584753 42.1982811,94.7100483 44.1418487,98.4138957 C48.1570956,97.1565883 52.4042114,95.24381 56.7048777,92.7715228 C54.0722603,91.0189262 51.4441873,89.0754833 48.8519257,86.957809 Z M55.0642613,87.3956772 C56.7040804,88.5962261 58.352631,89.724173 60,90.7741833 C61.647369,89.724173 63.2959196,88.5962261 64.9357387,87.3956772 C63.3118193,87.4647669 61.6656554,87.5 60,87.5 C58.3343446,87.5 56.6881807,87.4647669 55.0642613,87.3956772 Z M74.0919499,101.482569 C69.5484471,99.9983359 64.7883013,97.7588372 60,94.8642341 C55.2116987,97.7588372 50.4515529,99.9983359 45.9080501,101.482569 C49.8995957,107.792668 54.7881709,111.5625 60,111.5625 C65.2118291,111.5625 70.1004043,107.792668 74.0919499,101.482569 Z M75.8581513,98.4138957 C77.8017189,94.7100483 79.474114,90.3584753 80.7924266,85.5368479 C77.7139339,86.1484107 74.4901517,86.6265634 71.1480743,86.957809 C68.5558127,89.0754833 65.9277397,91.0189262 63.2951223,92.7715228 C67.5957886,95.24381 71.8429044,97.1565883 75.8581513,98.4138957 Z M77.6446981,102.49907 C72.9012419,110.339313 66.7728937,115 60,115 C53.2271063,115 47.0987581,110.339313 42.3553019,102.49907 C39.4340727,103.212275 36.6294509,103.583375 33.996,103.583375 C28.5595937,103.583375 24.2231875,102.005563 21.1105312,98.8894688 C16.480553,94.2594905 15.2480814,86.8191974 17.5116661,77.6515288 C9.66483096,72.9071259 5,66.7761452 5,60 C5,53.2238064 9.66489761,47.0927865 17.5118343,42.3483695 C15.2480206,33.1805158 16.4792383,25.7390742 21.1091563,21.1091563 C24.1788438,18.0394688 28.6355625,16.4169688 33.9963438,16.4169688 C36.6293916,16.4169688 39.4337407,16.7880526 42.3547859,17.5012254 C47.0983136,9.66069326 53.2268607,5 60,5 C66.7731393,5 72.9016864,9.66069326 77.6452141,17.5012254 C80.5662593,16.7880526 83.3706084,16.4169688 86.0036562,16.4169688 C91.4417812,16.4169688 95.7781875,17.9947813 98.8908437,21.1091563 C103.520762,25.7390742 104.751979,33.1805158 102.488166,42.3483695 C110.335102,47.0927865 115,53.2238064 115,60 C115,66.7761452 110.335169,72.9071259 102.488334,77.6515288 C104.751919,86.8191974 103.519447,94.2594905 98.8894688,98.8894688 C95.8215,101.960875 91.3647813,103.583375 86.004,103.583375 C83.3705491,103.583375 80.5659273,103.212275 77.6447019,102.499071 Z M79.3833743,99.3612267 C81.7063695,99.8773595 83.9261891,100.145875 86.004,100.145875 C90.4968125,100.145875 94.0150938,98.9049375 96.4591563,96.460875 C100.062267,92.857764 101.048803,86.8963616 99.3670748,79.3807278 C95.133027,81.5316781 90.1775549,83.3260624 84.6759765,84.6762216 C83.326399,90.1751099 81.5330198,95.1284858 79.3833743,99.3612267 Z M40.6161509,20.6390702 C38.2933506,20.122968 36.0737963,19.8544688 33.9963438,19.8544688 C29.5035313,19.8544688 25.98525,21.0954063 23.5411875,23.5394688 C19.9381318,27.1411104 18.9515707,33.103298 20.6331916,40.6191368 C24.8671303,38.4682723 29.8224423,36.6739521 35.3238267,35.3238267 C36.6733273,29.8249883 38.4666116,24.8717169 40.6161509,20.6390702 Z M32.6061371,64.9779467 C32.53585,63.340338 32.5,61.6800803 32.5,60 C32.5,58.3199702 32.5358438,56.6597697 32.6061191,55.0222235 C31.392475,56.6732855 30.2523526,58.3351944 29.1910209,60.0000666 C30.2523309,61.6649306 31.392453,63.3268456 32.6061371,64.9779467 Z M33.0418668,71.144312 C30.9258242,68.5517524 28.9771914,65.9140038 27.215619,63.2605538 C25.0766735,66.9856145 23.349125,70.6997651 22.0919375,74.3147813 C21.9112514,74.8342988 21.741458,75.3482022 21.5825439,75.8562828 C25.2872014,77.8006672 29.6400699,79.4737263 34.4633023,80.7924677 C33.851468,77.7127848 33.3731517,74.4877212 33.0418668,71.144312 Z M21.5827505,44.1436088 C21.741704,44.651841 21.9115432,45.1658954 22.0922813,45.6855625 C23.3494297,49.3004665 25.0766991,53.0142878 27.2153525,56.7390321 C28.9770101,54.0853584 30.9257447,51.4474367 33.0419032,48.85483 C33.3731596,45.511716 33.8514122,42.2869579 34.4631521,39.2075734 C29.6400693,40.526284 25.2873247,42.1992908 21.5827505,44.1436088 Z M18.5351801,45.896829 C12.2144023,49.8904321 8.4375,54.783286 8.4375,60 C8.4375,65.216662 12.214327,70.1094703 18.534991,74.1030515 C18.6348652,73.7988127 18.7382734,73.4929715 18.8452187,73.1855625 C20.345665,68.8710069 22.4774202,64.4302445 25.1498302,59.9996398 C22.4775811,55.5694441 20.3459444,51.1291518 18.8455625,46.8147813 C18.7385633,46.5072175 18.6351036,46.2012219 18.5351801,45.896829 Z M87.3938809,55.0222235 C87.4641562,56.6597697 87.5,58.3199702 87.5,60 C87.5,61.6800803 87.46415,63.340338 87.3938629,64.9779467 C88.607547,63.3268456 89.7476691,61.6649306 90.8089791,60.0000666 C89.7476474,58.3351944 88.607525,56.6732855 87.3938809,55.0222235 Z M86.9580968,48.85483 C89.0742553,51.4474367 91.0229899,54.0853584 92.7846475,56.7390321 C94.9233009,53.0142878 96.6505703,49.3004665 97.9077187,45.6855625 C98.0884568,45.1658954 98.258296,44.651841 98.4172495,44.1436088 C94.7126753,42.1992908 90.3599307,40.526284 85.5368479,39.2075734 C86.1485878,42.2869579 86.6268404,45.511716 86.9580968,48.85483 Z M98.4174561,75.8562828 C98.258542,75.3482022 98.0887486,74.8342988 97.9080625,74.3147813 C96.650875,70.6997651 94.9233265,66.9856145 92.784381,63.2605538 C91.0228086,65.9140038 89.0741758,68.5517524 86.9581332,71.144312 C86.6268483,74.4877212 86.148532,77.7127848 85.5366977,80.7924677 C90.3599301,79.4737263 94.7127986,77.8006672 98.4174561,75.8562828 Z M101.465009,74.1030515 C107.785673,70.1094703 111.5625,65.216662 111.5625,60 C111.5625,54.783286 107.785598,49.8904321 101.46482,45.896829 C101.364896,46.2012219 101.261437,46.5072175 101.154437,46.8147813 C99.6540558,51.1291512 97.5224195,55.5694429 94.8501709,59.999638 C97.5225799,64.4302446 99.654335,68.871007 101.154781,73.1855625 C101.261727,73.4929715 101.365135,73.7988127 101.465009,74.1030515 Z M37.1565263,44.1025923 C38.2550294,42.9047295 39.3884699,41.7211782 40.55475,40.5550938 C41.7229057,39.3869381 42.9066021,38.2535033 44.1025585,37.1565316 C42.1032229,37.4703155 40.1539988,37.8409827 38.2641909,38.2641909 C37.8409803,40.1540095 37.4703114,42.1032449 37.1565263,44.1025923 Z M75.8975142,82.843457 C77.8968243,82.5296755 79.8460241,82.1590122 81.7358091,81.7358091 C82.1590616,79.8458035 82.529762,77.8963692 82.8435669,75.896814 C81.7449274,77.0949535 80.611341,78.2788153 79.4449062,79.44525 C78.2768767,80.6132796 77.0933202,81.7465958 75.8975142,82.843457 Z M40.6166257,99.3612267 C38.4669802,95.1284858 36.673601,90.1751099 35.3240235,84.6762216 C29.8224451,83.3260624 24.866973,81.5316781 20.6329252,79.3807278 C18.9511967,86.8963616 19.9377328,92.857764 23.5408437,96.460875 C25.9849062,98.9049375 29.5031875,100.145875 33.996,100.145875 C36.0738109,100.145875 38.2936305,99.8773595 40.6166257,99.3612267 Z M99.3668084,40.6191368 C101.048429,33.103298 100.061868,27.1411104 96.4588125,23.5394688 C94.01475,21.0954063 90.4964687,19.8544688 86.0036562,19.8544688 C83.9262037,19.8544688 81.7066494,20.122968 79.3838491,20.6390702 C81.5333884,24.8717169 83.3266727,29.8249883 84.6761733,35.3238267 C90.1775577,36.6739521 95.1328697,38.4682723 99.3668084,40.6191368 Z M60,46.25 C53.6028125,46.25 49.6875,48.4757813 49.6875,49.6875 C49.6875,50.8992188 53.6028125,53.125 60,53.125 C66.3971875,53.125 70.3125,50.8992188 70.3125,49.6875 C70.3125,48.4757813 66.3971875,46.25 60,46.25 Z M89.21875,30.78125 L89.21875,27.34375 L92.65625,27.34375 L92.65625,30.78125 L89.21875,30.78125 Z M89.21875,92.65625 L89.21875,89.21875 L92.65625,89.21875 L92.65625,92.65625 L89.21875,92.65625 Z M27.34375,92.65625 L27.34375,89.21875 L30.78125,89.21875 L30.78125,92.65625 L27.34375,92.65625 Z M27.34375,30.78125 L27.34375,27.34375 L30.78125,27.34375 L30.78125,30.78125 L27.34375,30.78125 Z" id="path-1"></path>
        <polygon id="path-2" points="-0.000515625 0 41.3869844 0 41.3869844 89.6116719 -0.000515625 89.6116719"></polygon>
        <polygon id="path-4" points="0 110 110 110 110 0 0 0"></polygon>
    </defs>
    <g id="Page-1" stroke="none" stroke-width="1" fill="none" fill-rule="evenodd">
        <g id="TRS_pc_960_tight" transform="translate(-790.000000, -2489.000000)">
            <g id="4" transform="translate(0.000000, 2410.000000)">
                <g id="Group" transform="translate(760.000000, 80.000000)">
                    <g id="4_ico_3" transform="translate(30.000000, 0.000000)">
                        <g id="Combined-Shape">
                            <use fill="#222829" xlink:href="#path-1"></use>
                            <use fill="#4F2A84" xlink:href="#path-1"></use>
                        </g>
                        <g id="Group-37" transform="translate(5.000000, 5.000000)">
                            <path d="M110,55 C110,85.3754688 85.3754688,110 55,110 C24.6245312,110 0,85.3754688 0,55 C0,24.6245312 24.6245312,0 55,0 C85.3754688,0 110,24.6245312 110,55" id="Fill-1" fill="#E2E3F5"></path>
                            <path d="M22.34375,15.46875 C22.34375,19.2654688 19.2654688,22.34375 15.46875,22.34375 C11.6720312,22.34375 8.59375,19.2654688 8.59375,15.46875 C8.59375,11.6720312 11.6720312,8.59375 15.46875,8.59375 C19.2654688,8.59375 22.34375,11.6720312 22.34375,15.46875" id="Fill-3" fill="#F19072"></path>
                            <path d="M101.40625,15.46875 C101.40625,19.2654688 98.3279688,22.34375 94.53125,22.34375 C90.7345312,22.34375 87.65625,19.2654688 87.65625,15.46875 C87.65625,11.6720312 90.7345312,8.59375 94.53125,8.59375 C98.3279688,8.59375 101.40625,11.6720312 101.40625,15.46875" id="Fill-5" fill="#F19072"></path>
                            <path d="M22.34375,94.53125 C22.34375,98.3279687 19.2654688,101.40625 15.46875,101.40625 C11.6720312,101.40625 8.59375,98.3279687 8.59375,94.53125 C8.59375,90.7345313 11.6720312,87.65625 15.46875,87.65625 C19.2654688,87.65625 22.34375,90.7345313 22.34375,94.53125" id="Fill-7" fill="#F19072"></path>
                            <path d="M101.40625,94.53125 C101.40625,98.3279687 98.3279688,101.40625 94.53125,101.40625 C90.7345312,101.40625 87.65625,98.3279687 87.65625,94.53125 C87.65625,90.7345313 90.7345312,87.65625 94.53125,87.65625 C98.3279688,87.65625 101.40625,90.7345313 101.40625,94.53125" id="Fill-9" fill="#F19072"></path>
                            <path d="M55,39.53125 C48.3553125,39.53125 42.96875,41.84125 42.96875,44.6875 L42.96875,65.3125 C42.96875,68.15875 48.3553125,70.46875 55,70.46875 C61.6446875,70.46875 67.03125,68.15875 67.03125,65.3125 L67.03125,44.6875 C67.03125,41.84125 61.6446875,39.53125 55,39.53125" id="Fill-11" fill="#FFFFFF"></path>
                            <path d="M55,41.25 C48.6010938,41.25 44.6875,43.4757813 44.6875,44.6875 C44.6875,45.8992187 48.6010938,48.125 55,48.125 C61.3989062,48.125 65.3125,45.8992187 65.3125,44.6875 C65.3125,43.4757813 61.3989062,41.25 55,41.25 M55,51.5625 C48.16625,51.5625 41.25,49.2009375 41.25,44.6875 C41.25,40.1740625 48.16625,37.8125 55,37.8125 C61.83375,37.8125 68.75,40.1740625 68.75,44.6875 C68.75,49.2009375 61.83375,51.5625 55,51.5625" id="Fill-13" fill="#6138AF"></path>
                            <path d="M55,58.4375 C48.16625,58.4375 41.25,56.0759375 41.25,51.5625 L44.6875,51.5625 C44.6875,52.7742187 48.6010938,55 55,55 C61.3989062,55 65.3125,52.7742187 65.3125,51.5625 L68.75,51.5625 C68.75,56.0759375 61.83375,58.4375 55,58.4375" id="Fill-15" fill="#6138AF"></path>
                            <path d="M55,65.3125 C48.16625,65.3125 41.25,62.9509375 41.25,58.4375 L44.6875,58.4375 C44.6875,59.6492187 48.6010938,61.875 55,61.875 C61.3989062,61.875 65.3125,59.6492187 65.3125,58.4375 L68.75,58.4375 C68.75,62.9509375 61.83375,65.3125 55,65.3125" id="Fill-17" fill="#6138AF"></path>
                            <path d="M55,72.1875 C48.16625,72.1875 41.25,69.8259375 41.25,65.3125 L41.25,44.6875 L44.6875,44.6875 L44.6875,65.3125 C44.6875,66.5242187 48.6010938,68.75 55,68.75 C61.3989062,68.75 65.3125,66.5242187 65.3125,65.3125 L65.3125,44.6875 L68.75,44.6875 L68.75,65.3125 C68.75,69.8259375 61.83375,72.1875 55,72.1875" id="Fill-19" fill="#6138AF"></path>
                            <g id="Group-23" transform="translate(30.937500, 0.000000)">
                                <mask id="mask-3" fill="white">
                                    <use xlink:href="#path-2"></use>
                                </mask>
                                <g id="Clip-22"></g>
                                <path d="M5.25198438,89.6116719 C1.86432813,79.9024531 -0.000515625,67.6099531 -0.000515625,54.9994844 C-0.000515625,24.1582344 10.5697969,-0.000515625 24.0619844,-0.000515625 C30.7341719,-0.000515625 36.8872969,5.86557813 41.3869844,16.5183906 L38.2210469,17.8555781 C34.3504219,8.69292187 29.1907344,3.43698438 24.0619844,3.43698438 C12.8815156,3.43698438 3.43698438,27.0508906 3.43698438,54.9994844 C3.43698438,67.2335469 5.23307813,79.1238594 8.49870313,88.4807344 L5.25198438,89.6116719 Z" id="Fill-21" fill="#6138AF" mask="url(#mask-3)"></path>
                            </g>
                            <path d="M55,110 C48.3278125,110 42.1729688,104.133906 37.675,93.4810937 L40.8426562,92.1439063 C44.7132813,101.306562 49.8729687,106.5625 55,106.5625 C66.1804688,106.5625 75.625,82.9503125 75.625,55 C75.625,42.6129687 73.789375,30.6092187 70.4515625,21.1990625 L73.693125,20.0509375 C77.1564063,29.8203125 79.0625,42.2314062 79.0625,55 C79.0625,85.84125 68.4939062,110 55,110" id="Fill-24" fill="#6138AF"></path>
                            <path d="M55,82.5 C24.1604687,82.5 0,70.420625 0,55 C0,47.0267188 6.4178125,39.7546875 18.0726563,34.52625 L19.4785937,37.66125 C9.2846875,42.2365625 3.4375,48.5564063 3.4375,55 C3.4375,68.0435937 27.0496875,79.0625 55,79.0625 C66.7459375,79.0625 77.8284375,77.2303125 87.0495313,73.7635937 L88.2629687,76.9810937 C78.656875,80.5921875 67.155,82.5 55,82.5" id="Fill-26" fill="#6138AF"></path>
                            <path d="M87.8358594,77.34375 L86.5107031,74.085 C96.1064844,69.3326562 101.609922,62.7670312 101.609922,56.0725 C101.609922,42.5201563 79.3864844,31.0715625 53.0827344,31.0715625 C42.3164844,31.0715625 32.1002344,32.8865625 23.5460156,36.320625 L22.4391406,32.9639063 C31.3457031,29.3889063 41.9417969,27.5 53.0827344,27.5 C82.1072656,27.5 104.844609,40.0503125 104.844609,56.0725 C104.844609,64.3551562 98.8032031,71.9107812 87.8358594,77.34375" id="Fill-28" fill="#6138AF"></path>
                            <mask id="mask-5" fill="white">
                                <use xlink:href="#path-4"></use>
                            </mask>
                            <g id="Clip-31"></g>
                            <polygon id="Fill-30" fill="#6138AF" mask="url(#mask-5)" points="82.5 56.71875 85.9375 56.71875 85.9375 53.28125 82.5 53.28125"></polygon>
                            <polygon id="Fill-32" fill="#6138AF" mask="url(#mask-5)" points="82.5 49.84375 85.9375 49.84375 85.9375 46.40625 82.5 46.40625"></polygon>
                            <polygon id="Fill-33" fill="#6138AF" mask="url(#mask-5)" points="82.5 63.59375 85.9375 63.59375 85.9375 60.15625 82.5 60.15625"></polygon>
                            <polygon id="Fill-34" fill="#6138AF" mask="url(#mask-5)" points="24.0625 56.71875 27.5 56.71875 27.5 53.28125 24.0625 53.28125"></polygon>
                            <polygon id="Fill-35" fill="#6138AF" mask="url(#mask-5)" points="24.0625 49.84375 27.5 49.84375 27.5 46.40625 24.0625 46.40625"></polygon>
                            <polygon id="Fill-36" fill="#6138AF" mask="url(#mask-5)" points="24.0625 63.59375 27.5 63.59375 27.5 60.15625 24.0625 60.15625"></polygon>
                        </g>
                    </g>
                </g>
            </g>
        </g>
    </g>
</svg>